%TF.GenerationSoftware,KiCad,Pcbnew,5.0.2-bee76a0~70~ubuntu18.04.1*%
%TF.CreationDate,2020-09-30T14:13:53+10:00*%
%TF.ProjectId,SDR_board,5344525f-626f-4617-9264-2e6b69636164,rev?*%
%TF.SameCoordinates,Original*%
%TF.FileFunction,Legend,Bot*%
%TF.FilePolarity,Positive*%
%FSLAX46Y46*%
G04 Gerber Fmt 4.6, Leading zero omitted, Abs format (unit mm)*
G04 Created by KiCad (PCBNEW 5.0.2-bee76a0~70~ubuntu18.04.1) date Wed 30 Sep 2020 14:13:53 AEST*
%MOMM*%
%LPD*%
G01*
G04 APERTURE LIST*
%ADD10C,0.500000*%
%ADD11C,0.250000*%
%ADD12C,0.150000*%
%ADD13C,0.120000*%
%ADD14C,0.070000*%
G04 APERTURE END LIST*
D10*
X111500000Y-56750000D02*
G75*
G02X108500000Y-56750000I-1500000J-2250000D01*
G01*
X108497180Y-56748697D02*
G75*
G02X111500000Y-56750000I1502820J3248697D01*
G01*
X89789285Y-54702380D02*
X91455952Y-55297619D01*
X89789285Y-55892857D01*
X88955952Y-57321428D02*
X88955952Y-57559523D01*
X89075000Y-57797619D01*
X89194047Y-57916666D01*
X89432142Y-58035714D01*
X89908333Y-58154761D01*
X90503571Y-58154761D01*
X90979761Y-58035714D01*
X91217857Y-57916666D01*
X91336904Y-57797619D01*
X91455952Y-57559523D01*
X91455952Y-57321428D01*
X91336904Y-57083333D01*
X91217857Y-56964285D01*
X90979761Y-56845238D01*
X90503571Y-56726190D01*
X89908333Y-56726190D01*
X89432142Y-56845238D01*
X89194047Y-56964285D01*
X89075000Y-57083333D01*
X88955952Y-57321428D01*
X91217857Y-59226190D02*
X91336904Y-59345238D01*
X91455952Y-59226190D01*
X91336904Y-59107142D01*
X91217857Y-59226190D01*
X91455952Y-59226190D01*
X91455952Y-61726190D02*
X91455952Y-60297619D01*
X91455952Y-61011904D02*
X88955952Y-61011904D01*
X89313095Y-60773809D01*
X89551190Y-60535714D01*
X89670238Y-60297619D01*
X92408333Y-65416666D02*
X92289285Y-65297619D01*
X91932142Y-65059523D01*
X91694047Y-64940476D01*
X91336904Y-64821428D01*
X90741666Y-64702380D01*
X90265476Y-64702380D01*
X89670238Y-64821428D01*
X89313095Y-64940476D01*
X89075000Y-65059523D01*
X88717857Y-65297619D01*
X88598809Y-65416666D01*
X89194047Y-66250000D02*
X89075000Y-66369047D01*
X88955952Y-66607142D01*
X88955952Y-67202380D01*
X89075000Y-67440476D01*
X89194047Y-67559523D01*
X89432142Y-67678571D01*
X89670238Y-67678571D01*
X90027380Y-67559523D01*
X91455952Y-66130952D01*
X91455952Y-67678571D01*
X88955952Y-69226190D02*
X88955952Y-69464285D01*
X89075000Y-69702380D01*
X89194047Y-69821428D01*
X89432142Y-69940476D01*
X89908333Y-70059523D01*
X90503571Y-70059523D01*
X90979761Y-69940476D01*
X91217857Y-69821428D01*
X91336904Y-69702380D01*
X91455952Y-69464285D01*
X91455952Y-69226190D01*
X91336904Y-68988095D01*
X91217857Y-68869047D01*
X90979761Y-68750000D01*
X90503571Y-68630952D01*
X89908333Y-68630952D01*
X89432142Y-68750000D01*
X89194047Y-68869047D01*
X89075000Y-68988095D01*
X88955952Y-69226190D01*
X89194047Y-71011904D02*
X89075000Y-71130952D01*
X88955952Y-71369047D01*
X88955952Y-71964285D01*
X89075000Y-72202380D01*
X89194047Y-72321428D01*
X89432142Y-72440476D01*
X89670238Y-72440476D01*
X90027380Y-72321428D01*
X91455952Y-70892857D01*
X91455952Y-72440476D01*
X88955952Y-73988095D02*
X88955952Y-74226190D01*
X89075000Y-74464285D01*
X89194047Y-74583333D01*
X89432142Y-74702380D01*
X89908333Y-74821428D01*
X90503571Y-74821428D01*
X90979761Y-74702380D01*
X91217857Y-74583333D01*
X91336904Y-74464285D01*
X91455952Y-74226190D01*
X91455952Y-73988095D01*
X91336904Y-73750000D01*
X91217857Y-73630952D01*
X90979761Y-73511904D01*
X90503571Y-73392857D01*
X89908333Y-73392857D01*
X89432142Y-73511904D01*
X89194047Y-73630952D01*
X89075000Y-73750000D01*
X88955952Y-73988095D01*
X90146428Y-78630952D02*
X90146428Y-77797619D01*
X91455952Y-77797619D02*
X88955952Y-77797619D01*
X88955952Y-78988095D01*
X90265476Y-80416666D02*
X91455952Y-80416666D01*
X88955952Y-79583333D02*
X90265476Y-80416666D01*
X88955952Y-81250000D01*
X91455952Y-82083333D02*
X88955952Y-82083333D01*
X88955952Y-83035714D01*
X89075000Y-83273809D01*
X89194047Y-83392857D01*
X89432142Y-83511904D01*
X89789285Y-83511904D01*
X90027380Y-83392857D01*
X90146428Y-83273809D01*
X90265476Y-83035714D01*
X90265476Y-82083333D01*
X92408333Y-84345238D02*
X92289285Y-84464285D01*
X91932142Y-84702380D01*
X91694047Y-84821428D01*
X91336904Y-84940476D01*
X90741666Y-85059523D01*
X90265476Y-85059523D01*
X89670238Y-84940476D01*
X89313095Y-84821428D01*
X89075000Y-84702380D01*
X88717857Y-84464285D01*
X88598809Y-84345238D01*
X93205952Y-56845238D02*
X95705952Y-57440476D01*
X93920238Y-57916666D01*
X95705952Y-58392857D01*
X93205952Y-58988095D01*
X95705952Y-59940476D02*
X94039285Y-59940476D01*
X93205952Y-59940476D02*
X93325000Y-59821428D01*
X93444047Y-59940476D01*
X93325000Y-60059523D01*
X93205952Y-59940476D01*
X93444047Y-59940476D01*
X95705952Y-61488095D02*
X95586904Y-61250000D01*
X95348809Y-61130952D01*
X93205952Y-61130952D01*
X95705952Y-62797619D02*
X95586904Y-62559523D01*
X95348809Y-62440476D01*
X93205952Y-62440476D01*
X95705952Y-63750000D02*
X94039285Y-63750000D01*
X93205952Y-63750000D02*
X93325000Y-63630952D01*
X93444047Y-63750000D01*
X93325000Y-63869047D01*
X93205952Y-63750000D01*
X93444047Y-63750000D01*
X95705952Y-66011904D02*
X94396428Y-66011904D01*
X94158333Y-65892857D01*
X94039285Y-65654761D01*
X94039285Y-65178571D01*
X94158333Y-64940476D01*
X95586904Y-66011904D02*
X95705952Y-65773809D01*
X95705952Y-65178571D01*
X95586904Y-64940476D01*
X95348809Y-64821428D01*
X95110714Y-64821428D01*
X94872619Y-64940476D01*
X94753571Y-65178571D01*
X94753571Y-65773809D01*
X94634523Y-66011904D01*
X95705952Y-67202380D02*
X94039285Y-67202380D01*
X94277380Y-67202380D02*
X94158333Y-67321428D01*
X94039285Y-67559523D01*
X94039285Y-67916666D01*
X94158333Y-68154761D01*
X94396428Y-68273809D01*
X95705952Y-68273809D01*
X94396428Y-68273809D02*
X94158333Y-68392857D01*
X94039285Y-68630952D01*
X94039285Y-68988095D01*
X94158333Y-69226190D01*
X94396428Y-69345238D01*
X95705952Y-69345238D01*
X93205952Y-72202380D02*
X95705952Y-72797619D01*
X93920238Y-73273809D01*
X95705952Y-73750000D01*
X93205952Y-74345238D01*
X95705952Y-75654761D02*
X95586904Y-75416666D01*
X95467857Y-75297619D01*
X95229761Y-75178571D01*
X94515476Y-75178571D01*
X94277380Y-75297619D01*
X94158333Y-75416666D01*
X94039285Y-75654761D01*
X94039285Y-76011904D01*
X94158333Y-76250000D01*
X94277380Y-76369047D01*
X94515476Y-76488095D01*
X95229761Y-76488095D01*
X95467857Y-76369047D01*
X95586904Y-76250000D01*
X95705952Y-76011904D01*
X95705952Y-75654761D01*
X95705952Y-77916666D02*
X95586904Y-77678571D01*
X95467857Y-77559523D01*
X95229761Y-77440476D01*
X94515476Y-77440476D01*
X94277380Y-77559523D01*
X94158333Y-77678571D01*
X94039285Y-77916666D01*
X94039285Y-78273809D01*
X94158333Y-78511904D01*
X94277380Y-78630952D01*
X94515476Y-78750000D01*
X95229761Y-78750000D01*
X95467857Y-78630952D01*
X95586904Y-78511904D01*
X95705952Y-78273809D01*
X95705952Y-77916666D01*
X95705952Y-80892857D02*
X93205952Y-80892857D01*
X95586904Y-80892857D02*
X95705952Y-80654761D01*
X95705952Y-80178571D01*
X95586904Y-79940476D01*
X95467857Y-79821428D01*
X95229761Y-79702380D01*
X94515476Y-79702380D01*
X94277380Y-79821428D01*
X94158333Y-79940476D01*
X94039285Y-80178571D01*
X94039285Y-80654761D01*
X94158333Y-80892857D01*
X95586904Y-81964285D02*
X95705952Y-82202380D01*
X95705952Y-82678571D01*
X95586904Y-82916666D01*
X95348809Y-83035714D01*
X95229761Y-83035714D01*
X94991666Y-82916666D01*
X94872619Y-82678571D01*
X94872619Y-82321428D01*
X94753571Y-82083333D01*
X94515476Y-81964285D01*
X94396428Y-81964285D01*
X94158333Y-82083333D01*
X94039285Y-82321428D01*
X94039285Y-82678571D01*
X94158333Y-82916666D01*
D11*
X110000000Y-49250000D02*
X110000000Y-42000000D01*
D10*
X42942857Y-38000000D02*
X45609523Y-38000000D01*
X41419047Y-37047619D02*
X44276190Y-36095238D01*
X44276190Y-38571428D01*
X44085714Y-40095238D02*
X44085714Y-43142857D01*
X45228571Y-47333333D02*
X45419047Y-47142857D01*
X45609523Y-46571428D01*
X45609523Y-46190476D01*
X45419047Y-45619047D01*
X45038095Y-45238095D01*
X44657142Y-45047619D01*
X43895238Y-44857142D01*
X43323809Y-44857142D01*
X42561904Y-45047619D01*
X42180952Y-45238095D01*
X41800000Y-45619047D01*
X41609523Y-46190476D01*
X41609523Y-46571428D01*
X41800000Y-47142857D01*
X41990476Y-47333333D01*
X45609523Y-49047619D02*
X41609523Y-49047619D01*
X45609523Y-50761904D02*
X43514285Y-50761904D01*
X43133333Y-50571428D01*
X42942857Y-50190476D01*
X42942857Y-49619047D01*
X43133333Y-49238095D01*
X43323809Y-49047619D01*
X45609523Y-55714285D02*
X41609523Y-55714285D01*
X45609523Y-58000000D01*
X41609523Y-58000000D01*
X45609523Y-61619047D02*
X43514285Y-61619047D01*
X43133333Y-61428571D01*
X42942857Y-61047619D01*
X42942857Y-60285714D01*
X43133333Y-59904761D01*
X45419047Y-61619047D02*
X45609523Y-61238095D01*
X45609523Y-60285714D01*
X45419047Y-59904761D01*
X45038095Y-59714285D01*
X44657142Y-59714285D01*
X44276190Y-59904761D01*
X44085714Y-60285714D01*
X44085714Y-61238095D01*
X43895238Y-61619047D01*
X45609523Y-63523809D02*
X42942857Y-63523809D01*
X43704761Y-63523809D02*
X43323809Y-63714285D01*
X43133333Y-63904761D01*
X42942857Y-64285714D01*
X42942857Y-64666666D01*
X45609523Y-66000000D02*
X42942857Y-66000000D01*
X43704761Y-66000000D02*
X43323809Y-66190476D01*
X43133333Y-66380952D01*
X42942857Y-66761904D01*
X42942857Y-67142857D01*
X45609523Y-69047619D02*
X45419047Y-68666666D01*
X45228571Y-68476190D01*
X44847619Y-68285714D01*
X43704761Y-68285714D01*
X43323809Y-68476190D01*
X43133333Y-68666666D01*
X42942857Y-69047619D01*
X42942857Y-69619047D01*
X43133333Y-70000000D01*
X43323809Y-70190476D01*
X43704761Y-70380952D01*
X44847619Y-70380952D01*
X45228571Y-70190476D01*
X45419047Y-70000000D01*
X45609523Y-69619047D01*
X45609523Y-69047619D01*
X42942857Y-71714285D02*
X45609523Y-72476190D01*
X43704761Y-73238095D01*
X45609523Y-74000000D01*
X42942857Y-74761904D01*
X45609523Y-76285714D02*
X41609523Y-76285714D01*
X43133333Y-76285714D02*
X42942857Y-76666666D01*
X42942857Y-77428571D01*
X43133333Y-77809523D01*
X43323809Y-78000000D01*
X43704761Y-78190476D01*
X44847619Y-78190476D01*
X45228571Y-78000000D01*
X45419047Y-77809523D01*
X45609523Y-77428571D01*
X45609523Y-76666666D01*
X45419047Y-76285714D01*
X45609523Y-81619047D02*
X43514285Y-81619047D01*
X43133333Y-81428571D01*
X42942857Y-81047619D01*
X42942857Y-80285714D01*
X43133333Y-79904761D01*
X45419047Y-81619047D02*
X45609523Y-81238095D01*
X45609523Y-80285714D01*
X45419047Y-79904761D01*
X45038095Y-79714285D01*
X44657142Y-79714285D01*
X44276190Y-79904761D01*
X44085714Y-80285714D01*
X44085714Y-81238095D01*
X43895238Y-81619047D01*
X42942857Y-83523809D02*
X45609523Y-83523809D01*
X43323809Y-83523809D02*
X43133333Y-83714285D01*
X42942857Y-84095238D01*
X42942857Y-84666666D01*
X43133333Y-85047619D01*
X43514285Y-85238095D01*
X45609523Y-85238095D01*
X45609523Y-88857142D02*
X41609523Y-88857142D01*
X45419047Y-88857142D02*
X45609523Y-88476190D01*
X45609523Y-87714285D01*
X45419047Y-87333333D01*
X45228571Y-87142857D01*
X44847619Y-86952380D01*
X43704761Y-86952380D01*
X43323809Y-87142857D01*
X43133333Y-87333333D01*
X42942857Y-87714285D01*
X42942857Y-88476190D01*
X43133333Y-88857142D01*
X45419047Y-93619047D02*
X45609523Y-94190476D01*
X45609523Y-95142857D01*
X45419047Y-95523809D01*
X45228571Y-95714285D01*
X44847619Y-95904761D01*
X44466666Y-95904761D01*
X44085714Y-95714285D01*
X43895238Y-95523809D01*
X43704761Y-95142857D01*
X43514285Y-94380952D01*
X43323809Y-94000000D01*
X43133333Y-93809523D01*
X42752380Y-93619047D01*
X42371428Y-93619047D01*
X41990476Y-93809523D01*
X41800000Y-94000000D01*
X41609523Y-94380952D01*
X41609523Y-95333333D01*
X41800000Y-95904761D01*
X45609523Y-97619047D02*
X41609523Y-97619047D01*
X41609523Y-98571428D01*
X41800000Y-99142857D01*
X42180952Y-99523809D01*
X42561904Y-99714285D01*
X43323809Y-99904761D01*
X43895238Y-99904761D01*
X44657142Y-99714285D01*
X45038095Y-99523809D01*
X45419047Y-99142857D01*
X45609523Y-98571428D01*
X45609523Y-97619047D01*
X45609523Y-103904761D02*
X43704761Y-102571428D01*
X45609523Y-101619047D02*
X41609523Y-101619047D01*
X41609523Y-103142857D01*
X41800000Y-103523809D01*
X41990476Y-103714285D01*
X42371428Y-103904761D01*
X42942857Y-103904761D01*
X43323809Y-103714285D01*
X43514285Y-103523809D01*
X43704761Y-103142857D01*
X43704761Y-101619047D01*
D12*
X27000000Y-120000000D02*
G75*
G02X25000000Y-118000000I0J2000000D01*
G01*
X125000000Y-118000000D02*
G75*
G02X123000000Y-120000000I-2000000J0D01*
G01*
X123000000Y-20000000D02*
G75*
G02X125000000Y-22000000I0J-2000000D01*
G01*
X25000000Y-22000000D02*
G75*
G02X27000000Y-20000000I2000000J0D01*
G01*
X25000000Y-117999999D02*
X25000000Y-21999999D01*
X123000000Y-120000000D02*
X27000000Y-120000000D01*
X125000000Y-22000000D02*
X125000000Y-118000000D01*
X27000000Y-20000000D02*
X123000000Y-20000000D01*
D13*
X52965000Y-36746267D02*
X52965000Y-36403733D01*
X51945000Y-36746267D02*
X51945000Y-36403733D01*
X59103733Y-30690000D02*
X59446267Y-30690000D01*
X59103733Y-31710000D02*
X59446267Y-31710000D01*
X53203733Y-30260000D02*
X53546267Y-30260000D01*
X53203733Y-29240000D02*
X53546267Y-29240000D01*
X53203733Y-34710000D02*
X53546267Y-34710000D01*
X53203733Y-33690000D02*
X53546267Y-33690000D01*
X56310000Y-35296267D02*
X56310000Y-34953733D01*
X55290000Y-35296267D02*
X55290000Y-34953733D01*
X57240000Y-35296267D02*
X57240000Y-34953733D01*
X58260000Y-35296267D02*
X58260000Y-34953733D01*
X59696267Y-33340000D02*
X59353733Y-33340000D01*
X59696267Y-34360000D02*
X59353733Y-34360000D01*
X59446267Y-30410000D02*
X59103733Y-30410000D01*
X59446267Y-29390000D02*
X59103733Y-29390000D01*
X54746267Y-26090000D02*
X54403733Y-26090000D01*
X54746267Y-27110000D02*
X54403733Y-27110000D01*
X36846267Y-32385000D02*
X36503733Y-32385000D01*
X36846267Y-31365000D02*
X36503733Y-31365000D01*
X36503733Y-30860000D02*
X36846267Y-30860000D01*
X36503733Y-29840000D02*
X36846267Y-29840000D01*
X36846267Y-32890000D02*
X36503733Y-32890000D01*
X36846267Y-33910000D02*
X36503733Y-33910000D01*
X53203733Y-31760000D02*
X53546267Y-31760000D01*
X53203733Y-30740000D02*
X53546267Y-30740000D01*
X53203733Y-33210000D02*
X53546267Y-33210000D01*
X53203733Y-32190000D02*
X53546267Y-32190000D01*
X59750225Y-26633370D02*
X59407691Y-26633370D01*
X59750225Y-25613370D02*
X59407691Y-25613370D01*
X59750225Y-27063370D02*
X59407691Y-27063370D01*
X59750225Y-28083370D02*
X59407691Y-28083370D01*
X52965000Y-61746267D02*
X52965000Y-61403733D01*
X51945000Y-61746267D02*
X51945000Y-61403733D01*
X59103733Y-55690000D02*
X59446267Y-55690000D01*
X59103733Y-56710000D02*
X59446267Y-56710000D01*
X53203733Y-54240000D02*
X53546267Y-54240000D01*
X53203733Y-55260000D02*
X53546267Y-55260000D01*
X53203733Y-59710000D02*
X53546267Y-59710000D01*
X53203733Y-58690000D02*
X53546267Y-58690000D01*
X55290000Y-60296267D02*
X55290000Y-59953733D01*
X56310000Y-60296267D02*
X56310000Y-59953733D01*
X58260000Y-60296267D02*
X58260000Y-59953733D01*
X57240000Y-60296267D02*
X57240000Y-59953733D01*
X59696267Y-59360000D02*
X59353733Y-59360000D01*
X59696267Y-58340000D02*
X59353733Y-58340000D01*
X59446267Y-54390000D02*
X59103733Y-54390000D01*
X59446267Y-55410000D02*
X59103733Y-55410000D01*
X54746267Y-52110000D02*
X54403733Y-52110000D01*
X54746267Y-51090000D02*
X54403733Y-51090000D01*
X36846267Y-56365000D02*
X36503733Y-56365000D01*
X36846267Y-57385000D02*
X36503733Y-57385000D01*
X36503733Y-54840000D02*
X36846267Y-54840000D01*
X36503733Y-55860000D02*
X36846267Y-55860000D01*
X36846267Y-58910000D02*
X36503733Y-58910000D01*
X36846267Y-57890000D02*
X36503733Y-57890000D01*
X53203733Y-55740000D02*
X53546267Y-55740000D01*
X53203733Y-56760000D02*
X53546267Y-56760000D01*
X53203733Y-57190000D02*
X53546267Y-57190000D01*
X53203733Y-58210000D02*
X53546267Y-58210000D01*
X59750225Y-50613370D02*
X59407691Y-50613370D01*
X59750225Y-51633370D02*
X59407691Y-51633370D01*
X59750225Y-52063370D02*
X59407691Y-52063370D01*
X59750225Y-53083370D02*
X59407691Y-53083370D01*
X52965000Y-86746267D02*
X52965000Y-86403733D01*
X51945000Y-86746267D02*
X51945000Y-86403733D01*
X59103733Y-80690000D02*
X59446267Y-80690000D01*
X59103733Y-81710000D02*
X59446267Y-81710000D01*
X53203733Y-79240000D02*
X53546267Y-79240000D01*
X53203733Y-80260000D02*
X53546267Y-80260000D01*
X53203733Y-84710000D02*
X53546267Y-84710000D01*
X53203733Y-83690000D02*
X53546267Y-83690000D01*
X55290000Y-85296267D02*
X55290000Y-84953733D01*
X56310000Y-85296267D02*
X56310000Y-84953733D01*
X58260000Y-85296267D02*
X58260000Y-84953733D01*
X57240000Y-85296267D02*
X57240000Y-84953733D01*
X59696267Y-84360000D02*
X59353733Y-84360000D01*
X59696267Y-83340000D02*
X59353733Y-83340000D01*
X59446267Y-79390000D02*
X59103733Y-79390000D01*
X59446267Y-80410000D02*
X59103733Y-80410000D01*
X54746267Y-77110000D02*
X54403733Y-77110000D01*
X54746267Y-76090000D02*
X54403733Y-76090000D01*
X36846267Y-82385000D02*
X36503733Y-82385000D01*
X36846267Y-81365000D02*
X36503733Y-81365000D01*
X36503733Y-79840000D02*
X36846267Y-79840000D01*
X36503733Y-80860000D02*
X36846267Y-80860000D01*
X36846267Y-83910000D02*
X36503733Y-83910000D01*
X36846267Y-82890000D02*
X36503733Y-82890000D01*
X53203733Y-81760000D02*
X53546267Y-81760000D01*
X53203733Y-80740000D02*
X53546267Y-80740000D01*
X53203733Y-83210000D02*
X53546267Y-83210000D01*
X53203733Y-82190000D02*
X53546267Y-82190000D01*
X59750225Y-75613370D02*
X59407691Y-75613370D01*
X59750225Y-76633370D02*
X59407691Y-76633370D01*
X59750225Y-77063370D02*
X59407691Y-77063370D01*
X59750225Y-78083370D02*
X59407691Y-78083370D01*
X52965000Y-111746267D02*
X52965000Y-111403733D01*
X51945000Y-111746267D02*
X51945000Y-111403733D01*
X59103733Y-105690000D02*
X59446267Y-105690000D01*
X59103733Y-106710000D02*
X59446267Y-106710000D01*
X53203733Y-104240000D02*
X53546267Y-104240000D01*
X53203733Y-105260000D02*
X53546267Y-105260000D01*
X53203733Y-109710000D02*
X53546267Y-109710000D01*
X53203733Y-108690000D02*
X53546267Y-108690000D01*
X55290000Y-110296267D02*
X55290000Y-109953733D01*
X56310000Y-110296267D02*
X56310000Y-109953733D01*
X58260000Y-110296267D02*
X58260000Y-109953733D01*
X57240000Y-110296267D02*
X57240000Y-109953733D01*
X59696267Y-109360000D02*
X59353733Y-109360000D01*
X59696267Y-108340000D02*
X59353733Y-108340000D01*
X59446267Y-104390000D02*
X59103733Y-104390000D01*
X59446267Y-105410000D02*
X59103733Y-105410000D01*
X54746267Y-102110000D02*
X54403733Y-102110000D01*
X54746267Y-101090000D02*
X54403733Y-101090000D01*
X36846267Y-106365000D02*
X36503733Y-106365000D01*
X36846267Y-107385000D02*
X36503733Y-107385000D01*
X36503733Y-104840000D02*
X36846267Y-104840000D01*
X36503733Y-105860000D02*
X36846267Y-105860000D01*
X36846267Y-108910000D02*
X36503733Y-108910000D01*
X36846267Y-107890000D02*
X36503733Y-107890000D01*
X53203733Y-106760000D02*
X53546267Y-106760000D01*
X53203733Y-105740000D02*
X53546267Y-105740000D01*
X53203733Y-108210000D02*
X53546267Y-108210000D01*
X53203733Y-107190000D02*
X53546267Y-107190000D01*
X59750225Y-101633370D02*
X59407691Y-101633370D01*
X59750225Y-100613370D02*
X59407691Y-100613370D01*
X59750225Y-102063370D02*
X59407691Y-102063370D01*
X59750225Y-103083370D02*
X59407691Y-103083370D01*
D14*
X51542857Y-36052380D02*
X51561904Y-36033333D01*
X51580952Y-35976190D01*
X51580952Y-35938095D01*
X51561904Y-35880952D01*
X51523809Y-35842857D01*
X51485714Y-35823809D01*
X51409523Y-35804761D01*
X51352380Y-35804761D01*
X51276190Y-35823809D01*
X51238095Y-35842857D01*
X51200000Y-35880952D01*
X51180952Y-35938095D01*
X51180952Y-35976190D01*
X51200000Y-36033333D01*
X51219047Y-36052380D01*
X51219047Y-36204761D02*
X51200000Y-36223809D01*
X51180952Y-36261904D01*
X51180952Y-36357142D01*
X51200000Y-36395238D01*
X51219047Y-36414285D01*
X51257142Y-36433333D01*
X51295238Y-36433333D01*
X51352380Y-36414285D01*
X51580952Y-36185714D01*
X51580952Y-36433333D01*
X51180952Y-36680952D02*
X51180952Y-36719047D01*
X51200000Y-36757142D01*
X51219047Y-36776190D01*
X51257142Y-36795238D01*
X51333333Y-36814285D01*
X51428571Y-36814285D01*
X51504761Y-36795238D01*
X51542857Y-36776190D01*
X51561904Y-36757142D01*
X51580952Y-36719047D01*
X51580952Y-36680952D01*
X51561904Y-36642857D01*
X51542857Y-36623809D01*
X51504761Y-36604761D01*
X51428571Y-36585714D01*
X51333333Y-36585714D01*
X51257142Y-36604761D01*
X51219047Y-36623809D01*
X51200000Y-36642857D01*
X51180952Y-36680952D01*
X51580952Y-37195238D02*
X51580952Y-36966666D01*
X51580952Y-37080952D02*
X51180952Y-37080952D01*
X51238095Y-37042857D01*
X51276190Y-37004761D01*
X51295238Y-36966666D01*
X62247619Y-31292857D02*
X62266666Y-31311904D01*
X62323809Y-31330952D01*
X62361904Y-31330952D01*
X62419047Y-31311904D01*
X62457142Y-31273809D01*
X62476190Y-31235714D01*
X62495238Y-31159523D01*
X62495238Y-31102380D01*
X62476190Y-31026190D01*
X62457142Y-30988095D01*
X62419047Y-30950000D01*
X62361904Y-30930952D01*
X62323809Y-30930952D01*
X62266666Y-30950000D01*
X62247619Y-30969047D01*
X62095238Y-30969047D02*
X62076190Y-30950000D01*
X62038095Y-30930952D01*
X61942857Y-30930952D01*
X61904761Y-30950000D01*
X61885714Y-30969047D01*
X61866666Y-31007142D01*
X61866666Y-31045238D01*
X61885714Y-31102380D01*
X62114285Y-31330952D01*
X61866666Y-31330952D01*
X61619047Y-30930952D02*
X61580952Y-30930952D01*
X61542857Y-30950000D01*
X61523809Y-30969047D01*
X61504761Y-31007142D01*
X61485714Y-31083333D01*
X61485714Y-31178571D01*
X61504761Y-31254761D01*
X61523809Y-31292857D01*
X61542857Y-31311904D01*
X61580952Y-31330952D01*
X61619047Y-31330952D01*
X61657142Y-31311904D01*
X61676190Y-31292857D01*
X61695238Y-31254761D01*
X61714285Y-31178571D01*
X61714285Y-31083333D01*
X61695238Y-31007142D01*
X61676190Y-30969047D01*
X61657142Y-30950000D01*
X61619047Y-30930952D01*
X61333333Y-30969047D02*
X61314285Y-30950000D01*
X61276190Y-30930952D01*
X61180952Y-30930952D01*
X61142857Y-30950000D01*
X61123809Y-30969047D01*
X61104761Y-31007142D01*
X61104761Y-31045238D01*
X61123809Y-31102380D01*
X61352380Y-31330952D01*
X61104761Y-31330952D01*
X50597619Y-29842857D02*
X50616666Y-29861904D01*
X50673809Y-29880952D01*
X50711904Y-29880952D01*
X50769047Y-29861904D01*
X50807142Y-29823809D01*
X50826190Y-29785714D01*
X50845238Y-29709523D01*
X50845238Y-29652380D01*
X50826190Y-29576190D01*
X50807142Y-29538095D01*
X50769047Y-29500000D01*
X50711904Y-29480952D01*
X50673809Y-29480952D01*
X50616666Y-29500000D01*
X50597619Y-29519047D01*
X50445238Y-29519047D02*
X50426190Y-29500000D01*
X50388095Y-29480952D01*
X50292857Y-29480952D01*
X50254761Y-29500000D01*
X50235714Y-29519047D01*
X50216666Y-29557142D01*
X50216666Y-29595238D01*
X50235714Y-29652380D01*
X50464285Y-29880952D01*
X50216666Y-29880952D01*
X49969047Y-29480952D02*
X49930952Y-29480952D01*
X49892857Y-29500000D01*
X49873809Y-29519047D01*
X49854761Y-29557142D01*
X49835714Y-29633333D01*
X49835714Y-29728571D01*
X49854761Y-29804761D01*
X49873809Y-29842857D01*
X49892857Y-29861904D01*
X49930952Y-29880952D01*
X49969047Y-29880952D01*
X50007142Y-29861904D01*
X50026190Y-29842857D01*
X50045238Y-29804761D01*
X50064285Y-29728571D01*
X50064285Y-29633333D01*
X50045238Y-29557142D01*
X50026190Y-29519047D01*
X50007142Y-29500000D01*
X49969047Y-29480952D01*
X49702380Y-29480952D02*
X49454761Y-29480952D01*
X49588095Y-29633333D01*
X49530952Y-29633333D01*
X49492857Y-29652380D01*
X49473809Y-29671428D01*
X49454761Y-29709523D01*
X49454761Y-29804761D01*
X49473809Y-29842857D01*
X49492857Y-29861904D01*
X49530952Y-29880952D01*
X49645238Y-29880952D01*
X49683333Y-29861904D01*
X49702380Y-29842857D01*
X50597619Y-34392857D02*
X50616666Y-34411904D01*
X50673809Y-34430952D01*
X50711904Y-34430952D01*
X50769047Y-34411904D01*
X50807142Y-34373809D01*
X50826190Y-34335714D01*
X50845238Y-34259523D01*
X50845238Y-34202380D01*
X50826190Y-34126190D01*
X50807142Y-34088095D01*
X50769047Y-34050000D01*
X50711904Y-34030952D01*
X50673809Y-34030952D01*
X50616666Y-34050000D01*
X50597619Y-34069047D01*
X50445238Y-34069047D02*
X50426190Y-34050000D01*
X50388095Y-34030952D01*
X50292857Y-34030952D01*
X50254761Y-34050000D01*
X50235714Y-34069047D01*
X50216666Y-34107142D01*
X50216666Y-34145238D01*
X50235714Y-34202380D01*
X50464285Y-34430952D01*
X50216666Y-34430952D01*
X49969047Y-34030952D02*
X49930952Y-34030952D01*
X49892857Y-34050000D01*
X49873809Y-34069047D01*
X49854761Y-34107142D01*
X49835714Y-34183333D01*
X49835714Y-34278571D01*
X49854761Y-34354761D01*
X49873809Y-34392857D01*
X49892857Y-34411904D01*
X49930952Y-34430952D01*
X49969047Y-34430952D01*
X50007142Y-34411904D01*
X50026190Y-34392857D01*
X50045238Y-34354761D01*
X50064285Y-34278571D01*
X50064285Y-34183333D01*
X50045238Y-34107142D01*
X50026190Y-34069047D01*
X50007142Y-34050000D01*
X49969047Y-34030952D01*
X49492857Y-34164285D02*
X49492857Y-34430952D01*
X49588095Y-34011904D02*
X49683333Y-34297619D01*
X49435714Y-34297619D01*
X55992857Y-37352380D02*
X56011904Y-37333333D01*
X56030952Y-37276190D01*
X56030952Y-37238095D01*
X56011904Y-37180952D01*
X55973809Y-37142857D01*
X55935714Y-37123809D01*
X55859523Y-37104761D01*
X55802380Y-37104761D01*
X55726190Y-37123809D01*
X55688095Y-37142857D01*
X55650000Y-37180952D01*
X55630952Y-37238095D01*
X55630952Y-37276190D01*
X55650000Y-37333333D01*
X55669047Y-37352380D01*
X55669047Y-37504761D02*
X55650000Y-37523809D01*
X55630952Y-37561904D01*
X55630952Y-37657142D01*
X55650000Y-37695238D01*
X55669047Y-37714285D01*
X55707142Y-37733333D01*
X55745238Y-37733333D01*
X55802380Y-37714285D01*
X56030952Y-37485714D01*
X56030952Y-37733333D01*
X55630952Y-37980952D02*
X55630952Y-38019047D01*
X55650000Y-38057142D01*
X55669047Y-38076190D01*
X55707142Y-38095238D01*
X55783333Y-38114285D01*
X55878571Y-38114285D01*
X55954761Y-38095238D01*
X55992857Y-38076190D01*
X56011904Y-38057142D01*
X56030952Y-38019047D01*
X56030952Y-37980952D01*
X56011904Y-37942857D01*
X55992857Y-37923809D01*
X55954761Y-37904761D01*
X55878571Y-37885714D01*
X55783333Y-37885714D01*
X55707142Y-37904761D01*
X55669047Y-37923809D01*
X55650000Y-37942857D01*
X55630952Y-37980952D01*
X55630952Y-38476190D02*
X55630952Y-38285714D01*
X55821428Y-38266666D01*
X55802380Y-38285714D01*
X55783333Y-38323809D01*
X55783333Y-38419047D01*
X55802380Y-38457142D01*
X55821428Y-38476190D01*
X55859523Y-38495238D01*
X55954761Y-38495238D01*
X55992857Y-38476190D01*
X56011904Y-38457142D01*
X56030952Y-38419047D01*
X56030952Y-38323809D01*
X56011904Y-38285714D01*
X55992857Y-38266666D01*
X57992857Y-37352380D02*
X58011904Y-37333333D01*
X58030952Y-37276190D01*
X58030952Y-37238095D01*
X58011904Y-37180952D01*
X57973809Y-37142857D01*
X57935714Y-37123809D01*
X57859523Y-37104761D01*
X57802380Y-37104761D01*
X57726190Y-37123809D01*
X57688095Y-37142857D01*
X57650000Y-37180952D01*
X57630952Y-37238095D01*
X57630952Y-37276190D01*
X57650000Y-37333333D01*
X57669047Y-37352380D01*
X57669047Y-37504761D02*
X57650000Y-37523809D01*
X57630952Y-37561904D01*
X57630952Y-37657142D01*
X57650000Y-37695238D01*
X57669047Y-37714285D01*
X57707142Y-37733333D01*
X57745238Y-37733333D01*
X57802380Y-37714285D01*
X58030952Y-37485714D01*
X58030952Y-37733333D01*
X57630952Y-37980952D02*
X57630952Y-38019047D01*
X57650000Y-38057142D01*
X57669047Y-38076190D01*
X57707142Y-38095238D01*
X57783333Y-38114285D01*
X57878571Y-38114285D01*
X57954761Y-38095238D01*
X57992857Y-38076190D01*
X58011904Y-38057142D01*
X58030952Y-38019047D01*
X58030952Y-37980952D01*
X58011904Y-37942857D01*
X57992857Y-37923809D01*
X57954761Y-37904761D01*
X57878571Y-37885714D01*
X57783333Y-37885714D01*
X57707142Y-37904761D01*
X57669047Y-37923809D01*
X57650000Y-37942857D01*
X57630952Y-37980952D01*
X57630952Y-38457142D02*
X57630952Y-38380952D01*
X57650000Y-38342857D01*
X57669047Y-38323809D01*
X57726190Y-38285714D01*
X57802380Y-38266666D01*
X57954761Y-38266666D01*
X57992857Y-38285714D01*
X58011904Y-38304761D01*
X58030952Y-38342857D01*
X58030952Y-38419047D01*
X58011904Y-38457142D01*
X57992857Y-38476190D01*
X57954761Y-38495238D01*
X57859523Y-38495238D01*
X57821428Y-38476190D01*
X57802380Y-38457142D01*
X57783333Y-38419047D01*
X57783333Y-38342857D01*
X57802380Y-38304761D01*
X57821428Y-38285714D01*
X57859523Y-38266666D01*
X63097619Y-34042857D02*
X63116666Y-34061904D01*
X63173809Y-34080952D01*
X63211904Y-34080952D01*
X63269047Y-34061904D01*
X63307142Y-34023809D01*
X63326190Y-33985714D01*
X63345238Y-33909523D01*
X63345238Y-33852380D01*
X63326190Y-33776190D01*
X63307142Y-33738095D01*
X63269047Y-33700000D01*
X63211904Y-33680952D01*
X63173809Y-33680952D01*
X63116666Y-33700000D01*
X63097619Y-33719047D01*
X62945238Y-33719047D02*
X62926190Y-33700000D01*
X62888095Y-33680952D01*
X62792857Y-33680952D01*
X62754761Y-33700000D01*
X62735714Y-33719047D01*
X62716666Y-33757142D01*
X62716666Y-33795238D01*
X62735714Y-33852380D01*
X62964285Y-34080952D01*
X62716666Y-34080952D01*
X62469047Y-33680952D02*
X62430952Y-33680952D01*
X62392857Y-33700000D01*
X62373809Y-33719047D01*
X62354761Y-33757142D01*
X62335714Y-33833333D01*
X62335714Y-33928571D01*
X62354761Y-34004761D01*
X62373809Y-34042857D01*
X62392857Y-34061904D01*
X62430952Y-34080952D01*
X62469047Y-34080952D01*
X62507142Y-34061904D01*
X62526190Y-34042857D01*
X62545238Y-34004761D01*
X62564285Y-33928571D01*
X62564285Y-33833333D01*
X62545238Y-33757142D01*
X62526190Y-33719047D01*
X62507142Y-33700000D01*
X62469047Y-33680952D01*
X62202380Y-33680952D02*
X61935714Y-33680952D01*
X62107142Y-34080952D01*
X62247619Y-30042857D02*
X62266666Y-30061904D01*
X62323809Y-30080952D01*
X62361904Y-30080952D01*
X62419047Y-30061904D01*
X62457142Y-30023809D01*
X62476190Y-29985714D01*
X62495238Y-29909523D01*
X62495238Y-29852380D01*
X62476190Y-29776190D01*
X62457142Y-29738095D01*
X62419047Y-29700000D01*
X62361904Y-29680952D01*
X62323809Y-29680952D01*
X62266666Y-29700000D01*
X62247619Y-29719047D01*
X62095238Y-29719047D02*
X62076190Y-29700000D01*
X62038095Y-29680952D01*
X61942857Y-29680952D01*
X61904761Y-29700000D01*
X61885714Y-29719047D01*
X61866666Y-29757142D01*
X61866666Y-29795238D01*
X61885714Y-29852380D01*
X62114285Y-30080952D01*
X61866666Y-30080952D01*
X61619047Y-29680952D02*
X61580952Y-29680952D01*
X61542857Y-29700000D01*
X61523809Y-29719047D01*
X61504761Y-29757142D01*
X61485714Y-29833333D01*
X61485714Y-29928571D01*
X61504761Y-30004761D01*
X61523809Y-30042857D01*
X61542857Y-30061904D01*
X61580952Y-30080952D01*
X61619047Y-30080952D01*
X61657142Y-30061904D01*
X61676190Y-30042857D01*
X61695238Y-30004761D01*
X61714285Y-29928571D01*
X61714285Y-29833333D01*
X61695238Y-29757142D01*
X61676190Y-29719047D01*
X61657142Y-29700000D01*
X61619047Y-29680952D01*
X61257142Y-29852380D02*
X61295238Y-29833333D01*
X61314285Y-29814285D01*
X61333333Y-29776190D01*
X61333333Y-29757142D01*
X61314285Y-29719047D01*
X61295238Y-29700000D01*
X61257142Y-29680952D01*
X61180952Y-29680952D01*
X61142857Y-29700000D01*
X61123809Y-29719047D01*
X61104761Y-29757142D01*
X61104761Y-29776190D01*
X61123809Y-29814285D01*
X61142857Y-29833333D01*
X61180952Y-29852380D01*
X61257142Y-29852380D01*
X61295238Y-29871428D01*
X61314285Y-29890476D01*
X61333333Y-29928571D01*
X61333333Y-30004761D01*
X61314285Y-30042857D01*
X61295238Y-30061904D01*
X61257142Y-30080952D01*
X61180952Y-30080952D01*
X61142857Y-30061904D01*
X61123809Y-30042857D01*
X61104761Y-30004761D01*
X61104761Y-29928571D01*
X61123809Y-29890476D01*
X61142857Y-29871428D01*
X61180952Y-29852380D01*
X55022619Y-25312857D02*
X55041666Y-25331904D01*
X55098809Y-25350952D01*
X55136904Y-25350952D01*
X55194047Y-25331904D01*
X55232142Y-25293809D01*
X55251190Y-25255714D01*
X55270238Y-25179523D01*
X55270238Y-25122380D01*
X55251190Y-25046190D01*
X55232142Y-25008095D01*
X55194047Y-24970000D01*
X55136904Y-24950952D01*
X55098809Y-24950952D01*
X55041666Y-24970000D01*
X55022619Y-24989047D01*
X54870238Y-24989047D02*
X54851190Y-24970000D01*
X54813095Y-24950952D01*
X54717857Y-24950952D01*
X54679761Y-24970000D01*
X54660714Y-24989047D01*
X54641666Y-25027142D01*
X54641666Y-25065238D01*
X54660714Y-25122380D01*
X54889285Y-25350952D01*
X54641666Y-25350952D01*
X54394047Y-24950952D02*
X54355952Y-24950952D01*
X54317857Y-24970000D01*
X54298809Y-24989047D01*
X54279761Y-25027142D01*
X54260714Y-25103333D01*
X54260714Y-25198571D01*
X54279761Y-25274761D01*
X54298809Y-25312857D01*
X54317857Y-25331904D01*
X54355952Y-25350952D01*
X54394047Y-25350952D01*
X54432142Y-25331904D01*
X54451190Y-25312857D01*
X54470238Y-25274761D01*
X54489285Y-25198571D01*
X54489285Y-25103333D01*
X54470238Y-25027142D01*
X54451190Y-24989047D01*
X54432142Y-24970000D01*
X54394047Y-24950952D01*
X54070238Y-25350952D02*
X53994047Y-25350952D01*
X53955952Y-25331904D01*
X53936904Y-25312857D01*
X53898809Y-25255714D01*
X53879761Y-25179523D01*
X53879761Y-25027142D01*
X53898809Y-24989047D01*
X53917857Y-24970000D01*
X53955952Y-24950952D01*
X54032142Y-24950952D01*
X54070238Y-24970000D01*
X54089285Y-24989047D01*
X54108333Y-25027142D01*
X54108333Y-25122380D01*
X54089285Y-25160476D01*
X54070238Y-25179523D01*
X54032142Y-25198571D01*
X53955952Y-25198571D01*
X53917857Y-25179523D01*
X53898809Y-25160476D01*
X53879761Y-25122380D01*
X39597619Y-31992857D02*
X39616666Y-32011904D01*
X39673809Y-32030952D01*
X39711904Y-32030952D01*
X39769047Y-32011904D01*
X39807142Y-31973809D01*
X39826190Y-31935714D01*
X39845238Y-31859523D01*
X39845238Y-31802380D01*
X39826190Y-31726190D01*
X39807142Y-31688095D01*
X39769047Y-31650000D01*
X39711904Y-31630952D01*
X39673809Y-31630952D01*
X39616666Y-31650000D01*
X39597619Y-31669047D01*
X39445238Y-31669047D02*
X39426190Y-31650000D01*
X39388095Y-31630952D01*
X39292857Y-31630952D01*
X39254761Y-31650000D01*
X39235714Y-31669047D01*
X39216666Y-31707142D01*
X39216666Y-31745238D01*
X39235714Y-31802380D01*
X39464285Y-32030952D01*
X39216666Y-32030952D01*
X38835714Y-32030952D02*
X39064285Y-32030952D01*
X38950000Y-32030952D02*
X38950000Y-31630952D01*
X38988095Y-31688095D01*
X39026190Y-31726190D01*
X39064285Y-31745238D01*
X38588095Y-31630952D02*
X38550000Y-31630952D01*
X38511904Y-31650000D01*
X38492857Y-31669047D01*
X38473809Y-31707142D01*
X38454761Y-31783333D01*
X38454761Y-31878571D01*
X38473809Y-31954761D01*
X38492857Y-31992857D01*
X38511904Y-32011904D01*
X38550000Y-32030952D01*
X38588095Y-32030952D01*
X38626190Y-32011904D01*
X38645238Y-31992857D01*
X38664285Y-31954761D01*
X38683333Y-31878571D01*
X38683333Y-31783333D01*
X38664285Y-31707142D01*
X38645238Y-31669047D01*
X38626190Y-31650000D01*
X38588095Y-31630952D01*
X39597619Y-30442857D02*
X39616666Y-30461904D01*
X39673809Y-30480952D01*
X39711904Y-30480952D01*
X39769047Y-30461904D01*
X39807142Y-30423809D01*
X39826190Y-30385714D01*
X39845238Y-30309523D01*
X39845238Y-30252380D01*
X39826190Y-30176190D01*
X39807142Y-30138095D01*
X39769047Y-30100000D01*
X39711904Y-30080952D01*
X39673809Y-30080952D01*
X39616666Y-30100000D01*
X39597619Y-30119047D01*
X39445238Y-30119047D02*
X39426190Y-30100000D01*
X39388095Y-30080952D01*
X39292857Y-30080952D01*
X39254761Y-30100000D01*
X39235714Y-30119047D01*
X39216666Y-30157142D01*
X39216666Y-30195238D01*
X39235714Y-30252380D01*
X39464285Y-30480952D01*
X39216666Y-30480952D01*
X38835714Y-30480952D02*
X39064285Y-30480952D01*
X38950000Y-30480952D02*
X38950000Y-30080952D01*
X38988095Y-30138095D01*
X39026190Y-30176190D01*
X39064285Y-30195238D01*
X38454761Y-30480952D02*
X38683333Y-30480952D01*
X38569047Y-30480952D02*
X38569047Y-30080952D01*
X38607142Y-30138095D01*
X38645238Y-30176190D01*
X38683333Y-30195238D01*
X39597619Y-33542857D02*
X39616666Y-33561904D01*
X39673809Y-33580952D01*
X39711904Y-33580952D01*
X39769047Y-33561904D01*
X39807142Y-33523809D01*
X39826190Y-33485714D01*
X39845238Y-33409523D01*
X39845238Y-33352380D01*
X39826190Y-33276190D01*
X39807142Y-33238095D01*
X39769047Y-33200000D01*
X39711904Y-33180952D01*
X39673809Y-33180952D01*
X39616666Y-33200000D01*
X39597619Y-33219047D01*
X39445238Y-33219047D02*
X39426190Y-33200000D01*
X39388095Y-33180952D01*
X39292857Y-33180952D01*
X39254761Y-33200000D01*
X39235714Y-33219047D01*
X39216666Y-33257142D01*
X39216666Y-33295238D01*
X39235714Y-33352380D01*
X39464285Y-33580952D01*
X39216666Y-33580952D01*
X38835714Y-33580952D02*
X39064285Y-33580952D01*
X38950000Y-33580952D02*
X38950000Y-33180952D01*
X38988095Y-33238095D01*
X39026190Y-33276190D01*
X39064285Y-33295238D01*
X38683333Y-33219047D02*
X38664285Y-33200000D01*
X38626190Y-33180952D01*
X38530952Y-33180952D01*
X38492857Y-33200000D01*
X38473809Y-33219047D01*
X38454761Y-33257142D01*
X38454761Y-33295238D01*
X38473809Y-33352380D01*
X38702380Y-33580952D01*
X38454761Y-33580952D01*
X50597619Y-31359523D02*
X50616666Y-31378570D01*
X50673809Y-31397618D01*
X50711904Y-31397618D01*
X50769047Y-31378570D01*
X50807142Y-31340475D01*
X50826190Y-31302380D01*
X50845238Y-31226189D01*
X50845238Y-31169046D01*
X50826190Y-31092856D01*
X50807142Y-31054761D01*
X50769047Y-31016666D01*
X50711904Y-30997618D01*
X50673809Y-30997618D01*
X50616666Y-31016666D01*
X50597619Y-31035713D01*
X50445238Y-31035713D02*
X50426190Y-31016666D01*
X50388095Y-30997618D01*
X50292857Y-30997618D01*
X50254761Y-31016666D01*
X50235714Y-31035713D01*
X50216666Y-31073808D01*
X50216666Y-31111904D01*
X50235714Y-31169046D01*
X50464285Y-31397618D01*
X50216666Y-31397618D01*
X49835714Y-31397618D02*
X50064285Y-31397618D01*
X49950000Y-31397618D02*
X49950000Y-30997618D01*
X49988095Y-31054761D01*
X50026190Y-31092856D01*
X50064285Y-31111904D01*
X49645238Y-31397618D02*
X49569047Y-31397618D01*
X49530952Y-31378570D01*
X49511904Y-31359523D01*
X49473809Y-31302380D01*
X49454761Y-31226189D01*
X49454761Y-31073808D01*
X49473809Y-31035713D01*
X49492857Y-31016666D01*
X49530952Y-30997618D01*
X49607142Y-30997618D01*
X49645238Y-31016666D01*
X49664285Y-31035713D01*
X49683333Y-31073808D01*
X49683333Y-31169046D01*
X49664285Y-31207142D01*
X49645238Y-31226189D01*
X49607142Y-31245237D01*
X49530952Y-31245237D01*
X49492857Y-31226189D01*
X49473809Y-31207142D01*
X49454761Y-31169046D01*
X50597619Y-32876189D02*
X50616666Y-32895236D01*
X50673809Y-32914284D01*
X50711904Y-32914284D01*
X50769047Y-32895236D01*
X50807142Y-32857141D01*
X50826190Y-32819046D01*
X50845238Y-32742855D01*
X50845238Y-32685712D01*
X50826190Y-32609522D01*
X50807142Y-32571427D01*
X50769047Y-32533332D01*
X50711904Y-32514284D01*
X50673809Y-32514284D01*
X50616666Y-32533332D01*
X50597619Y-32552379D01*
X50445238Y-32552379D02*
X50426190Y-32533332D01*
X50388095Y-32514284D01*
X50292857Y-32514284D01*
X50254761Y-32533332D01*
X50235714Y-32552379D01*
X50216666Y-32590474D01*
X50216666Y-32628570D01*
X50235714Y-32685712D01*
X50464285Y-32914284D01*
X50216666Y-32914284D01*
X50064285Y-32552379D02*
X50045238Y-32533332D01*
X50007142Y-32514284D01*
X49911904Y-32514284D01*
X49873809Y-32533332D01*
X49854761Y-32552379D01*
X49835714Y-32590474D01*
X49835714Y-32628570D01*
X49854761Y-32685712D01*
X50083333Y-32914284D01*
X49835714Y-32914284D01*
X49454761Y-32914284D02*
X49683333Y-32914284D01*
X49569047Y-32914284D02*
X49569047Y-32514284D01*
X49607142Y-32571427D01*
X49645238Y-32609522D01*
X49683333Y-32628570D01*
X62547619Y-26292857D02*
X62566666Y-26311904D01*
X62623809Y-26330952D01*
X62661904Y-26330952D01*
X62719047Y-26311904D01*
X62757142Y-26273809D01*
X62776190Y-26235714D01*
X62795238Y-26159523D01*
X62795238Y-26102380D01*
X62776190Y-26026190D01*
X62757142Y-25988095D01*
X62719047Y-25950000D01*
X62661904Y-25930952D01*
X62623809Y-25930952D01*
X62566666Y-25950000D01*
X62547619Y-25969047D01*
X62395238Y-25969047D02*
X62376190Y-25950000D01*
X62338095Y-25930952D01*
X62242857Y-25930952D01*
X62204761Y-25950000D01*
X62185714Y-25969047D01*
X62166666Y-26007142D01*
X62166666Y-26045238D01*
X62185714Y-26102380D01*
X62414285Y-26330952D01*
X62166666Y-26330952D01*
X62014285Y-25969047D02*
X61995238Y-25950000D01*
X61957142Y-25930952D01*
X61861904Y-25930952D01*
X61823809Y-25950000D01*
X61804761Y-25969047D01*
X61785714Y-26007142D01*
X61785714Y-26045238D01*
X61804761Y-26102380D01*
X62033333Y-26330952D01*
X61785714Y-26330952D01*
X61423809Y-25930952D02*
X61614285Y-25930952D01*
X61633333Y-26121428D01*
X61614285Y-26102380D01*
X61576190Y-26083333D01*
X61480952Y-26083333D01*
X61442857Y-26102380D01*
X61423809Y-26121428D01*
X61404761Y-26159523D01*
X61404761Y-26254761D01*
X61423809Y-26292857D01*
X61442857Y-26311904D01*
X61480952Y-26330952D01*
X61576190Y-26330952D01*
X61614285Y-26311904D01*
X61633333Y-26292857D01*
X62547619Y-27692857D02*
X62566666Y-27711904D01*
X62623809Y-27730952D01*
X62661904Y-27730952D01*
X62719047Y-27711904D01*
X62757142Y-27673809D01*
X62776190Y-27635714D01*
X62795238Y-27559523D01*
X62795238Y-27502380D01*
X62776190Y-27426190D01*
X62757142Y-27388095D01*
X62719047Y-27350000D01*
X62661904Y-27330952D01*
X62623809Y-27330952D01*
X62566666Y-27350000D01*
X62547619Y-27369047D01*
X62395238Y-27369047D02*
X62376190Y-27350000D01*
X62338095Y-27330952D01*
X62242857Y-27330952D01*
X62204761Y-27350000D01*
X62185714Y-27369047D01*
X62166666Y-27407142D01*
X62166666Y-27445238D01*
X62185714Y-27502380D01*
X62414285Y-27730952D01*
X62166666Y-27730952D01*
X62014285Y-27369047D02*
X61995238Y-27350000D01*
X61957142Y-27330952D01*
X61861904Y-27330952D01*
X61823809Y-27350000D01*
X61804761Y-27369047D01*
X61785714Y-27407142D01*
X61785714Y-27445238D01*
X61804761Y-27502380D01*
X62033333Y-27730952D01*
X61785714Y-27730952D01*
X61442857Y-27330952D02*
X61519047Y-27330952D01*
X61557142Y-27350000D01*
X61576190Y-27369047D01*
X61614285Y-27426190D01*
X61633333Y-27502380D01*
X61633333Y-27654761D01*
X61614285Y-27692857D01*
X61595238Y-27711904D01*
X61557142Y-27730952D01*
X61480952Y-27730952D01*
X61442857Y-27711904D01*
X61423809Y-27692857D01*
X61404761Y-27654761D01*
X61404761Y-27559523D01*
X61423809Y-27521428D01*
X61442857Y-27502380D01*
X61480952Y-27483333D01*
X61557142Y-27483333D01*
X61595238Y-27502380D01*
X61614285Y-27521428D01*
X61633333Y-27559523D01*
X51542857Y-61052380D02*
X51561904Y-61033333D01*
X51580952Y-60976190D01*
X51580952Y-60938095D01*
X51561904Y-60880952D01*
X51523809Y-60842857D01*
X51485714Y-60823809D01*
X51409523Y-60804761D01*
X51352380Y-60804761D01*
X51276190Y-60823809D01*
X51238095Y-60842857D01*
X51200000Y-60880952D01*
X51180952Y-60938095D01*
X51180952Y-60976190D01*
X51200000Y-61033333D01*
X51219047Y-61052380D01*
X51180952Y-61185714D02*
X51180952Y-61433333D01*
X51333333Y-61300000D01*
X51333333Y-61357142D01*
X51352380Y-61395238D01*
X51371428Y-61414285D01*
X51409523Y-61433333D01*
X51504761Y-61433333D01*
X51542857Y-61414285D01*
X51561904Y-61395238D01*
X51580952Y-61357142D01*
X51580952Y-61242857D01*
X51561904Y-61204761D01*
X51542857Y-61185714D01*
X51180952Y-61680952D02*
X51180952Y-61719047D01*
X51200000Y-61757142D01*
X51219047Y-61776190D01*
X51257142Y-61795238D01*
X51333333Y-61814285D01*
X51428571Y-61814285D01*
X51504761Y-61795238D01*
X51542857Y-61776190D01*
X51561904Y-61757142D01*
X51580952Y-61719047D01*
X51580952Y-61680952D01*
X51561904Y-61642857D01*
X51542857Y-61623809D01*
X51504761Y-61604761D01*
X51428571Y-61585714D01*
X51333333Y-61585714D01*
X51257142Y-61604761D01*
X51219047Y-61623809D01*
X51200000Y-61642857D01*
X51180952Y-61680952D01*
X51580952Y-62195238D02*
X51580952Y-61966666D01*
X51580952Y-62080952D02*
X51180952Y-62080952D01*
X51238095Y-62042857D01*
X51276190Y-62004761D01*
X51295238Y-61966666D01*
X62247619Y-56292857D02*
X62266666Y-56311904D01*
X62323809Y-56330952D01*
X62361904Y-56330952D01*
X62419047Y-56311904D01*
X62457142Y-56273809D01*
X62476190Y-56235714D01*
X62495238Y-56159523D01*
X62495238Y-56102380D01*
X62476190Y-56026190D01*
X62457142Y-55988095D01*
X62419047Y-55950000D01*
X62361904Y-55930952D01*
X62323809Y-55930952D01*
X62266666Y-55950000D01*
X62247619Y-55969047D01*
X62114285Y-55930952D02*
X61866666Y-55930952D01*
X62000000Y-56083333D01*
X61942857Y-56083333D01*
X61904761Y-56102380D01*
X61885714Y-56121428D01*
X61866666Y-56159523D01*
X61866666Y-56254761D01*
X61885714Y-56292857D01*
X61904761Y-56311904D01*
X61942857Y-56330952D01*
X62057142Y-56330952D01*
X62095238Y-56311904D01*
X62114285Y-56292857D01*
X61619047Y-55930952D02*
X61580952Y-55930952D01*
X61542857Y-55950000D01*
X61523809Y-55969047D01*
X61504761Y-56007142D01*
X61485714Y-56083333D01*
X61485714Y-56178571D01*
X61504761Y-56254761D01*
X61523809Y-56292857D01*
X61542857Y-56311904D01*
X61580952Y-56330952D01*
X61619047Y-56330952D01*
X61657142Y-56311904D01*
X61676190Y-56292857D01*
X61695238Y-56254761D01*
X61714285Y-56178571D01*
X61714285Y-56083333D01*
X61695238Y-56007142D01*
X61676190Y-55969047D01*
X61657142Y-55950000D01*
X61619047Y-55930952D01*
X61333333Y-55969047D02*
X61314285Y-55950000D01*
X61276190Y-55930952D01*
X61180952Y-55930952D01*
X61142857Y-55950000D01*
X61123809Y-55969047D01*
X61104761Y-56007142D01*
X61104761Y-56045238D01*
X61123809Y-56102380D01*
X61352380Y-56330952D01*
X61104761Y-56330952D01*
X50597619Y-54842857D02*
X50616666Y-54861904D01*
X50673809Y-54880952D01*
X50711904Y-54880952D01*
X50769047Y-54861904D01*
X50807142Y-54823809D01*
X50826190Y-54785714D01*
X50845238Y-54709523D01*
X50845238Y-54652380D01*
X50826190Y-54576190D01*
X50807142Y-54538095D01*
X50769047Y-54500000D01*
X50711904Y-54480952D01*
X50673809Y-54480952D01*
X50616666Y-54500000D01*
X50597619Y-54519047D01*
X50464285Y-54480952D02*
X50216666Y-54480952D01*
X50350000Y-54633333D01*
X50292857Y-54633333D01*
X50254761Y-54652380D01*
X50235714Y-54671428D01*
X50216666Y-54709523D01*
X50216666Y-54804761D01*
X50235714Y-54842857D01*
X50254761Y-54861904D01*
X50292857Y-54880952D01*
X50407142Y-54880952D01*
X50445238Y-54861904D01*
X50464285Y-54842857D01*
X49969047Y-54480952D02*
X49930952Y-54480952D01*
X49892857Y-54500000D01*
X49873809Y-54519047D01*
X49854761Y-54557142D01*
X49835714Y-54633333D01*
X49835714Y-54728571D01*
X49854761Y-54804761D01*
X49873809Y-54842857D01*
X49892857Y-54861904D01*
X49930952Y-54880952D01*
X49969047Y-54880952D01*
X50007142Y-54861904D01*
X50026190Y-54842857D01*
X50045238Y-54804761D01*
X50064285Y-54728571D01*
X50064285Y-54633333D01*
X50045238Y-54557142D01*
X50026190Y-54519047D01*
X50007142Y-54500000D01*
X49969047Y-54480952D01*
X49702380Y-54480952D02*
X49454761Y-54480952D01*
X49588095Y-54633333D01*
X49530952Y-54633333D01*
X49492857Y-54652380D01*
X49473809Y-54671428D01*
X49454761Y-54709523D01*
X49454761Y-54804761D01*
X49473809Y-54842857D01*
X49492857Y-54861904D01*
X49530952Y-54880952D01*
X49645238Y-54880952D01*
X49683333Y-54861904D01*
X49702380Y-54842857D01*
X50597619Y-59392857D02*
X50616666Y-59411904D01*
X50673809Y-59430952D01*
X50711904Y-59430952D01*
X50769047Y-59411904D01*
X50807142Y-59373809D01*
X50826190Y-59335714D01*
X50845238Y-59259523D01*
X50845238Y-59202380D01*
X50826190Y-59126190D01*
X50807142Y-59088095D01*
X50769047Y-59050000D01*
X50711904Y-59030952D01*
X50673809Y-59030952D01*
X50616666Y-59050000D01*
X50597619Y-59069047D01*
X50464285Y-59030952D02*
X50216666Y-59030952D01*
X50350000Y-59183333D01*
X50292857Y-59183333D01*
X50254761Y-59202380D01*
X50235714Y-59221428D01*
X50216666Y-59259523D01*
X50216666Y-59354761D01*
X50235714Y-59392857D01*
X50254761Y-59411904D01*
X50292857Y-59430952D01*
X50407142Y-59430952D01*
X50445238Y-59411904D01*
X50464285Y-59392857D01*
X49969047Y-59030952D02*
X49930952Y-59030952D01*
X49892857Y-59050000D01*
X49873809Y-59069047D01*
X49854761Y-59107142D01*
X49835714Y-59183333D01*
X49835714Y-59278571D01*
X49854761Y-59354761D01*
X49873809Y-59392857D01*
X49892857Y-59411904D01*
X49930952Y-59430952D01*
X49969047Y-59430952D01*
X50007142Y-59411904D01*
X50026190Y-59392857D01*
X50045238Y-59354761D01*
X50064285Y-59278571D01*
X50064285Y-59183333D01*
X50045238Y-59107142D01*
X50026190Y-59069047D01*
X50007142Y-59050000D01*
X49969047Y-59030952D01*
X49492857Y-59164285D02*
X49492857Y-59430952D01*
X49588095Y-59011904D02*
X49683333Y-59297619D01*
X49435714Y-59297619D01*
X55992857Y-62352380D02*
X56011904Y-62333333D01*
X56030952Y-62276190D01*
X56030952Y-62238095D01*
X56011904Y-62180952D01*
X55973809Y-62142857D01*
X55935714Y-62123809D01*
X55859523Y-62104761D01*
X55802380Y-62104761D01*
X55726190Y-62123809D01*
X55688095Y-62142857D01*
X55650000Y-62180952D01*
X55630952Y-62238095D01*
X55630952Y-62276190D01*
X55650000Y-62333333D01*
X55669047Y-62352380D01*
X55630952Y-62485714D02*
X55630952Y-62733333D01*
X55783333Y-62600000D01*
X55783333Y-62657142D01*
X55802380Y-62695238D01*
X55821428Y-62714285D01*
X55859523Y-62733333D01*
X55954761Y-62733333D01*
X55992857Y-62714285D01*
X56011904Y-62695238D01*
X56030952Y-62657142D01*
X56030952Y-62542857D01*
X56011904Y-62504761D01*
X55992857Y-62485714D01*
X55630952Y-62980952D02*
X55630952Y-63019047D01*
X55650000Y-63057142D01*
X55669047Y-63076190D01*
X55707142Y-63095238D01*
X55783333Y-63114285D01*
X55878571Y-63114285D01*
X55954761Y-63095238D01*
X55992857Y-63076190D01*
X56011904Y-63057142D01*
X56030952Y-63019047D01*
X56030952Y-62980952D01*
X56011904Y-62942857D01*
X55992857Y-62923809D01*
X55954761Y-62904761D01*
X55878571Y-62885714D01*
X55783333Y-62885714D01*
X55707142Y-62904761D01*
X55669047Y-62923809D01*
X55650000Y-62942857D01*
X55630952Y-62980952D01*
X55630952Y-63476190D02*
X55630952Y-63285714D01*
X55821428Y-63266666D01*
X55802380Y-63285714D01*
X55783333Y-63323809D01*
X55783333Y-63419047D01*
X55802380Y-63457142D01*
X55821428Y-63476190D01*
X55859523Y-63495238D01*
X55954761Y-63495238D01*
X55992857Y-63476190D01*
X56011904Y-63457142D01*
X56030952Y-63419047D01*
X56030952Y-63323809D01*
X56011904Y-63285714D01*
X55992857Y-63266666D01*
X57992857Y-62352380D02*
X58011904Y-62333333D01*
X58030952Y-62276190D01*
X58030952Y-62238095D01*
X58011904Y-62180952D01*
X57973809Y-62142857D01*
X57935714Y-62123809D01*
X57859523Y-62104761D01*
X57802380Y-62104761D01*
X57726190Y-62123809D01*
X57688095Y-62142857D01*
X57650000Y-62180952D01*
X57630952Y-62238095D01*
X57630952Y-62276190D01*
X57650000Y-62333333D01*
X57669047Y-62352380D01*
X57630952Y-62485714D02*
X57630952Y-62733333D01*
X57783333Y-62600000D01*
X57783333Y-62657142D01*
X57802380Y-62695238D01*
X57821428Y-62714285D01*
X57859523Y-62733333D01*
X57954761Y-62733333D01*
X57992857Y-62714285D01*
X58011904Y-62695238D01*
X58030952Y-62657142D01*
X58030952Y-62542857D01*
X58011904Y-62504761D01*
X57992857Y-62485714D01*
X57630952Y-62980952D02*
X57630952Y-63019047D01*
X57650000Y-63057142D01*
X57669047Y-63076190D01*
X57707142Y-63095238D01*
X57783333Y-63114285D01*
X57878571Y-63114285D01*
X57954761Y-63095238D01*
X57992857Y-63076190D01*
X58011904Y-63057142D01*
X58030952Y-63019047D01*
X58030952Y-62980952D01*
X58011904Y-62942857D01*
X57992857Y-62923809D01*
X57954761Y-62904761D01*
X57878571Y-62885714D01*
X57783333Y-62885714D01*
X57707142Y-62904761D01*
X57669047Y-62923809D01*
X57650000Y-62942857D01*
X57630952Y-62980952D01*
X57630952Y-63457142D02*
X57630952Y-63380952D01*
X57650000Y-63342857D01*
X57669047Y-63323809D01*
X57726190Y-63285714D01*
X57802380Y-63266666D01*
X57954761Y-63266666D01*
X57992857Y-63285714D01*
X58011904Y-63304761D01*
X58030952Y-63342857D01*
X58030952Y-63419047D01*
X58011904Y-63457142D01*
X57992857Y-63476190D01*
X57954761Y-63495238D01*
X57859523Y-63495238D01*
X57821428Y-63476190D01*
X57802380Y-63457142D01*
X57783333Y-63419047D01*
X57783333Y-63342857D01*
X57802380Y-63304761D01*
X57821428Y-63285714D01*
X57859523Y-63266666D01*
X63097619Y-59042857D02*
X63116666Y-59061904D01*
X63173809Y-59080952D01*
X63211904Y-59080952D01*
X63269047Y-59061904D01*
X63307142Y-59023809D01*
X63326190Y-58985714D01*
X63345238Y-58909523D01*
X63345238Y-58852380D01*
X63326190Y-58776190D01*
X63307142Y-58738095D01*
X63269047Y-58700000D01*
X63211904Y-58680952D01*
X63173809Y-58680952D01*
X63116666Y-58700000D01*
X63097619Y-58719047D01*
X62964285Y-58680952D02*
X62716666Y-58680952D01*
X62850000Y-58833333D01*
X62792857Y-58833333D01*
X62754761Y-58852380D01*
X62735714Y-58871428D01*
X62716666Y-58909523D01*
X62716666Y-59004761D01*
X62735714Y-59042857D01*
X62754761Y-59061904D01*
X62792857Y-59080952D01*
X62907142Y-59080952D01*
X62945238Y-59061904D01*
X62964285Y-59042857D01*
X62469047Y-58680952D02*
X62430952Y-58680952D01*
X62392857Y-58700000D01*
X62373809Y-58719047D01*
X62354761Y-58757142D01*
X62335714Y-58833333D01*
X62335714Y-58928571D01*
X62354761Y-59004761D01*
X62373809Y-59042857D01*
X62392857Y-59061904D01*
X62430952Y-59080952D01*
X62469047Y-59080952D01*
X62507142Y-59061904D01*
X62526190Y-59042857D01*
X62545238Y-59004761D01*
X62564285Y-58928571D01*
X62564285Y-58833333D01*
X62545238Y-58757142D01*
X62526190Y-58719047D01*
X62507142Y-58700000D01*
X62469047Y-58680952D01*
X62202380Y-58680952D02*
X61935714Y-58680952D01*
X62107142Y-59080952D01*
X62247619Y-55042857D02*
X62266666Y-55061904D01*
X62323809Y-55080952D01*
X62361904Y-55080952D01*
X62419047Y-55061904D01*
X62457142Y-55023809D01*
X62476190Y-54985714D01*
X62495238Y-54909523D01*
X62495238Y-54852380D01*
X62476190Y-54776190D01*
X62457142Y-54738095D01*
X62419047Y-54700000D01*
X62361904Y-54680952D01*
X62323809Y-54680952D01*
X62266666Y-54700000D01*
X62247619Y-54719047D01*
X62114285Y-54680952D02*
X61866666Y-54680952D01*
X62000000Y-54833333D01*
X61942857Y-54833333D01*
X61904761Y-54852380D01*
X61885714Y-54871428D01*
X61866666Y-54909523D01*
X61866666Y-55004761D01*
X61885714Y-55042857D01*
X61904761Y-55061904D01*
X61942857Y-55080952D01*
X62057142Y-55080952D01*
X62095238Y-55061904D01*
X62114285Y-55042857D01*
X61619047Y-54680952D02*
X61580952Y-54680952D01*
X61542857Y-54700000D01*
X61523809Y-54719047D01*
X61504761Y-54757142D01*
X61485714Y-54833333D01*
X61485714Y-54928571D01*
X61504761Y-55004761D01*
X61523809Y-55042857D01*
X61542857Y-55061904D01*
X61580952Y-55080952D01*
X61619047Y-55080952D01*
X61657142Y-55061904D01*
X61676190Y-55042857D01*
X61695238Y-55004761D01*
X61714285Y-54928571D01*
X61714285Y-54833333D01*
X61695238Y-54757142D01*
X61676190Y-54719047D01*
X61657142Y-54700000D01*
X61619047Y-54680952D01*
X61257142Y-54852380D02*
X61295238Y-54833333D01*
X61314285Y-54814285D01*
X61333333Y-54776190D01*
X61333333Y-54757142D01*
X61314285Y-54719047D01*
X61295238Y-54700000D01*
X61257142Y-54680952D01*
X61180952Y-54680952D01*
X61142857Y-54700000D01*
X61123809Y-54719047D01*
X61104761Y-54757142D01*
X61104761Y-54776190D01*
X61123809Y-54814285D01*
X61142857Y-54833333D01*
X61180952Y-54852380D01*
X61257142Y-54852380D01*
X61295238Y-54871428D01*
X61314285Y-54890476D01*
X61333333Y-54928571D01*
X61333333Y-55004761D01*
X61314285Y-55042857D01*
X61295238Y-55061904D01*
X61257142Y-55080952D01*
X61180952Y-55080952D01*
X61142857Y-55061904D01*
X61123809Y-55042857D01*
X61104761Y-55004761D01*
X61104761Y-54928571D01*
X61123809Y-54890476D01*
X61142857Y-54871428D01*
X61180952Y-54852380D01*
X55022619Y-50312857D02*
X55041666Y-50331904D01*
X55098809Y-50350952D01*
X55136904Y-50350952D01*
X55194047Y-50331904D01*
X55232142Y-50293809D01*
X55251190Y-50255714D01*
X55270238Y-50179523D01*
X55270238Y-50122380D01*
X55251190Y-50046190D01*
X55232142Y-50008095D01*
X55194047Y-49970000D01*
X55136904Y-49950952D01*
X55098809Y-49950952D01*
X55041666Y-49970000D01*
X55022619Y-49989047D01*
X54889285Y-49950952D02*
X54641666Y-49950952D01*
X54775000Y-50103333D01*
X54717857Y-50103333D01*
X54679761Y-50122380D01*
X54660714Y-50141428D01*
X54641666Y-50179523D01*
X54641666Y-50274761D01*
X54660714Y-50312857D01*
X54679761Y-50331904D01*
X54717857Y-50350952D01*
X54832142Y-50350952D01*
X54870238Y-50331904D01*
X54889285Y-50312857D01*
X54394047Y-49950952D02*
X54355952Y-49950952D01*
X54317857Y-49970000D01*
X54298809Y-49989047D01*
X54279761Y-50027142D01*
X54260714Y-50103333D01*
X54260714Y-50198571D01*
X54279761Y-50274761D01*
X54298809Y-50312857D01*
X54317857Y-50331904D01*
X54355952Y-50350952D01*
X54394047Y-50350952D01*
X54432142Y-50331904D01*
X54451190Y-50312857D01*
X54470238Y-50274761D01*
X54489285Y-50198571D01*
X54489285Y-50103333D01*
X54470238Y-50027142D01*
X54451190Y-49989047D01*
X54432142Y-49970000D01*
X54394047Y-49950952D01*
X54070238Y-50350952D02*
X53994047Y-50350952D01*
X53955952Y-50331904D01*
X53936904Y-50312857D01*
X53898809Y-50255714D01*
X53879761Y-50179523D01*
X53879761Y-50027142D01*
X53898809Y-49989047D01*
X53917857Y-49970000D01*
X53955952Y-49950952D01*
X54032142Y-49950952D01*
X54070238Y-49970000D01*
X54089285Y-49989047D01*
X54108333Y-50027142D01*
X54108333Y-50122380D01*
X54089285Y-50160476D01*
X54070238Y-50179523D01*
X54032142Y-50198571D01*
X53955952Y-50198571D01*
X53917857Y-50179523D01*
X53898809Y-50160476D01*
X53879761Y-50122380D01*
X39597619Y-56992857D02*
X39616666Y-57011904D01*
X39673809Y-57030952D01*
X39711904Y-57030952D01*
X39769047Y-57011904D01*
X39807142Y-56973809D01*
X39826190Y-56935714D01*
X39845238Y-56859523D01*
X39845238Y-56802380D01*
X39826190Y-56726190D01*
X39807142Y-56688095D01*
X39769047Y-56650000D01*
X39711904Y-56630952D01*
X39673809Y-56630952D01*
X39616666Y-56650000D01*
X39597619Y-56669047D01*
X39464285Y-56630952D02*
X39216666Y-56630952D01*
X39350000Y-56783333D01*
X39292857Y-56783333D01*
X39254761Y-56802380D01*
X39235714Y-56821428D01*
X39216666Y-56859523D01*
X39216666Y-56954761D01*
X39235714Y-56992857D01*
X39254761Y-57011904D01*
X39292857Y-57030952D01*
X39407142Y-57030952D01*
X39445238Y-57011904D01*
X39464285Y-56992857D01*
X38835714Y-57030952D02*
X39064285Y-57030952D01*
X38950000Y-57030952D02*
X38950000Y-56630952D01*
X38988095Y-56688095D01*
X39026190Y-56726190D01*
X39064285Y-56745238D01*
X38588095Y-56630952D02*
X38550000Y-56630952D01*
X38511904Y-56650000D01*
X38492857Y-56669047D01*
X38473809Y-56707142D01*
X38454761Y-56783333D01*
X38454761Y-56878571D01*
X38473809Y-56954761D01*
X38492857Y-56992857D01*
X38511904Y-57011904D01*
X38550000Y-57030952D01*
X38588095Y-57030952D01*
X38626190Y-57011904D01*
X38645238Y-56992857D01*
X38664285Y-56954761D01*
X38683333Y-56878571D01*
X38683333Y-56783333D01*
X38664285Y-56707142D01*
X38645238Y-56669047D01*
X38626190Y-56650000D01*
X38588095Y-56630952D01*
X39597619Y-55442857D02*
X39616666Y-55461904D01*
X39673809Y-55480952D01*
X39711904Y-55480952D01*
X39769047Y-55461904D01*
X39807142Y-55423809D01*
X39826190Y-55385714D01*
X39845238Y-55309523D01*
X39845238Y-55252380D01*
X39826190Y-55176190D01*
X39807142Y-55138095D01*
X39769047Y-55100000D01*
X39711904Y-55080952D01*
X39673809Y-55080952D01*
X39616666Y-55100000D01*
X39597619Y-55119047D01*
X39464285Y-55080952D02*
X39216666Y-55080952D01*
X39350000Y-55233333D01*
X39292857Y-55233333D01*
X39254761Y-55252380D01*
X39235714Y-55271428D01*
X39216666Y-55309523D01*
X39216666Y-55404761D01*
X39235714Y-55442857D01*
X39254761Y-55461904D01*
X39292857Y-55480952D01*
X39407142Y-55480952D01*
X39445238Y-55461904D01*
X39464285Y-55442857D01*
X38835714Y-55480952D02*
X39064285Y-55480952D01*
X38950000Y-55480952D02*
X38950000Y-55080952D01*
X38988095Y-55138095D01*
X39026190Y-55176190D01*
X39064285Y-55195238D01*
X38454761Y-55480952D02*
X38683333Y-55480952D01*
X38569047Y-55480952D02*
X38569047Y-55080952D01*
X38607142Y-55138095D01*
X38645238Y-55176190D01*
X38683333Y-55195238D01*
X39597619Y-58542857D02*
X39616666Y-58561904D01*
X39673809Y-58580952D01*
X39711904Y-58580952D01*
X39769047Y-58561904D01*
X39807142Y-58523809D01*
X39826190Y-58485714D01*
X39845238Y-58409523D01*
X39845238Y-58352380D01*
X39826190Y-58276190D01*
X39807142Y-58238095D01*
X39769047Y-58200000D01*
X39711904Y-58180952D01*
X39673809Y-58180952D01*
X39616666Y-58200000D01*
X39597619Y-58219047D01*
X39464285Y-58180952D02*
X39216666Y-58180952D01*
X39350000Y-58333333D01*
X39292857Y-58333333D01*
X39254761Y-58352380D01*
X39235714Y-58371428D01*
X39216666Y-58409523D01*
X39216666Y-58504761D01*
X39235714Y-58542857D01*
X39254761Y-58561904D01*
X39292857Y-58580952D01*
X39407142Y-58580952D01*
X39445238Y-58561904D01*
X39464285Y-58542857D01*
X38835714Y-58580952D02*
X39064285Y-58580952D01*
X38950000Y-58580952D02*
X38950000Y-58180952D01*
X38988095Y-58238095D01*
X39026190Y-58276190D01*
X39064285Y-58295238D01*
X38683333Y-58219047D02*
X38664285Y-58200000D01*
X38626190Y-58180952D01*
X38530952Y-58180952D01*
X38492857Y-58200000D01*
X38473809Y-58219047D01*
X38454761Y-58257142D01*
X38454761Y-58295238D01*
X38473809Y-58352380D01*
X38702380Y-58580952D01*
X38454761Y-58580952D01*
X50597619Y-56359523D02*
X50616666Y-56378570D01*
X50673809Y-56397618D01*
X50711904Y-56397618D01*
X50769047Y-56378570D01*
X50807142Y-56340475D01*
X50826190Y-56302380D01*
X50845238Y-56226189D01*
X50845238Y-56169046D01*
X50826190Y-56092856D01*
X50807142Y-56054761D01*
X50769047Y-56016666D01*
X50711904Y-55997618D01*
X50673809Y-55997618D01*
X50616666Y-56016666D01*
X50597619Y-56035713D01*
X50464285Y-55997618D02*
X50216666Y-55997618D01*
X50350000Y-56149999D01*
X50292857Y-56149999D01*
X50254761Y-56169046D01*
X50235714Y-56188094D01*
X50216666Y-56226189D01*
X50216666Y-56321427D01*
X50235714Y-56359523D01*
X50254761Y-56378570D01*
X50292857Y-56397618D01*
X50407142Y-56397618D01*
X50445238Y-56378570D01*
X50464285Y-56359523D01*
X49835714Y-56397618D02*
X50064285Y-56397618D01*
X49950000Y-56397618D02*
X49950000Y-55997618D01*
X49988095Y-56054761D01*
X50026190Y-56092856D01*
X50064285Y-56111904D01*
X49645238Y-56397618D02*
X49569047Y-56397618D01*
X49530952Y-56378570D01*
X49511904Y-56359523D01*
X49473809Y-56302380D01*
X49454761Y-56226189D01*
X49454761Y-56073808D01*
X49473809Y-56035713D01*
X49492857Y-56016666D01*
X49530952Y-55997618D01*
X49607142Y-55997618D01*
X49645238Y-56016666D01*
X49664285Y-56035713D01*
X49683333Y-56073808D01*
X49683333Y-56169046D01*
X49664285Y-56207142D01*
X49645238Y-56226189D01*
X49607142Y-56245237D01*
X49530952Y-56245237D01*
X49492857Y-56226189D01*
X49473809Y-56207142D01*
X49454761Y-56169046D01*
X50597619Y-57876189D02*
X50616666Y-57895236D01*
X50673809Y-57914284D01*
X50711904Y-57914284D01*
X50769047Y-57895236D01*
X50807142Y-57857141D01*
X50826190Y-57819046D01*
X50845238Y-57742855D01*
X50845238Y-57685712D01*
X50826190Y-57609522D01*
X50807142Y-57571427D01*
X50769047Y-57533332D01*
X50711904Y-57514284D01*
X50673809Y-57514284D01*
X50616666Y-57533332D01*
X50597619Y-57552379D01*
X50464285Y-57514284D02*
X50216666Y-57514284D01*
X50350000Y-57666665D01*
X50292857Y-57666665D01*
X50254761Y-57685712D01*
X50235714Y-57704760D01*
X50216666Y-57742855D01*
X50216666Y-57838093D01*
X50235714Y-57876189D01*
X50254761Y-57895236D01*
X50292857Y-57914284D01*
X50407142Y-57914284D01*
X50445238Y-57895236D01*
X50464285Y-57876189D01*
X50064285Y-57552379D02*
X50045238Y-57533332D01*
X50007142Y-57514284D01*
X49911904Y-57514284D01*
X49873809Y-57533332D01*
X49854761Y-57552379D01*
X49835714Y-57590474D01*
X49835714Y-57628570D01*
X49854761Y-57685712D01*
X50083333Y-57914284D01*
X49835714Y-57914284D01*
X49454761Y-57914284D02*
X49683333Y-57914284D01*
X49569047Y-57914284D02*
X49569047Y-57514284D01*
X49607142Y-57571427D01*
X49645238Y-57609522D01*
X49683333Y-57628570D01*
X62547619Y-51292857D02*
X62566666Y-51311904D01*
X62623809Y-51330952D01*
X62661904Y-51330952D01*
X62719047Y-51311904D01*
X62757142Y-51273809D01*
X62776190Y-51235714D01*
X62795238Y-51159523D01*
X62795238Y-51102380D01*
X62776190Y-51026190D01*
X62757142Y-50988095D01*
X62719047Y-50950000D01*
X62661904Y-50930952D01*
X62623809Y-50930952D01*
X62566666Y-50950000D01*
X62547619Y-50969047D01*
X62414285Y-50930952D02*
X62166666Y-50930952D01*
X62300000Y-51083333D01*
X62242857Y-51083333D01*
X62204761Y-51102380D01*
X62185714Y-51121428D01*
X62166666Y-51159523D01*
X62166666Y-51254761D01*
X62185714Y-51292857D01*
X62204761Y-51311904D01*
X62242857Y-51330952D01*
X62357142Y-51330952D01*
X62395238Y-51311904D01*
X62414285Y-51292857D01*
X62014285Y-50969047D02*
X61995238Y-50950000D01*
X61957142Y-50930952D01*
X61861904Y-50930952D01*
X61823809Y-50950000D01*
X61804761Y-50969047D01*
X61785714Y-51007142D01*
X61785714Y-51045238D01*
X61804761Y-51102380D01*
X62033333Y-51330952D01*
X61785714Y-51330952D01*
X61423809Y-50930952D02*
X61614285Y-50930952D01*
X61633333Y-51121428D01*
X61614285Y-51102380D01*
X61576190Y-51083333D01*
X61480952Y-51083333D01*
X61442857Y-51102380D01*
X61423809Y-51121428D01*
X61404761Y-51159523D01*
X61404761Y-51254761D01*
X61423809Y-51292857D01*
X61442857Y-51311904D01*
X61480952Y-51330952D01*
X61576190Y-51330952D01*
X61614285Y-51311904D01*
X61633333Y-51292857D01*
X62547619Y-52692857D02*
X62566666Y-52711904D01*
X62623809Y-52730952D01*
X62661904Y-52730952D01*
X62719047Y-52711904D01*
X62757142Y-52673809D01*
X62776190Y-52635714D01*
X62795238Y-52559523D01*
X62795238Y-52502380D01*
X62776190Y-52426190D01*
X62757142Y-52388095D01*
X62719047Y-52350000D01*
X62661904Y-52330952D01*
X62623809Y-52330952D01*
X62566666Y-52350000D01*
X62547619Y-52369047D01*
X62414285Y-52330952D02*
X62166666Y-52330952D01*
X62300000Y-52483333D01*
X62242857Y-52483333D01*
X62204761Y-52502380D01*
X62185714Y-52521428D01*
X62166666Y-52559523D01*
X62166666Y-52654761D01*
X62185714Y-52692857D01*
X62204761Y-52711904D01*
X62242857Y-52730952D01*
X62357142Y-52730952D01*
X62395238Y-52711904D01*
X62414285Y-52692857D01*
X62014285Y-52369047D02*
X61995238Y-52350000D01*
X61957142Y-52330952D01*
X61861904Y-52330952D01*
X61823809Y-52350000D01*
X61804761Y-52369047D01*
X61785714Y-52407142D01*
X61785714Y-52445238D01*
X61804761Y-52502380D01*
X62033333Y-52730952D01*
X61785714Y-52730952D01*
X61442857Y-52330952D02*
X61519047Y-52330952D01*
X61557142Y-52350000D01*
X61576190Y-52369047D01*
X61614285Y-52426190D01*
X61633333Y-52502380D01*
X61633333Y-52654761D01*
X61614285Y-52692857D01*
X61595238Y-52711904D01*
X61557142Y-52730952D01*
X61480952Y-52730952D01*
X61442857Y-52711904D01*
X61423809Y-52692857D01*
X61404761Y-52654761D01*
X61404761Y-52559523D01*
X61423809Y-52521428D01*
X61442857Y-52502380D01*
X61480952Y-52483333D01*
X61557142Y-52483333D01*
X61595238Y-52502380D01*
X61614285Y-52521428D01*
X61633333Y-52559523D01*
X51542857Y-86052380D02*
X51561904Y-86033333D01*
X51580952Y-85976190D01*
X51580952Y-85938095D01*
X51561904Y-85880952D01*
X51523809Y-85842857D01*
X51485714Y-85823809D01*
X51409523Y-85804761D01*
X51352380Y-85804761D01*
X51276190Y-85823809D01*
X51238095Y-85842857D01*
X51200000Y-85880952D01*
X51180952Y-85938095D01*
X51180952Y-85976190D01*
X51200000Y-86033333D01*
X51219047Y-86052380D01*
X51314285Y-86395238D02*
X51580952Y-86395238D01*
X51161904Y-86300000D02*
X51447619Y-86204761D01*
X51447619Y-86452380D01*
X51180952Y-86680952D02*
X51180952Y-86719047D01*
X51200000Y-86757142D01*
X51219047Y-86776190D01*
X51257142Y-86795238D01*
X51333333Y-86814285D01*
X51428571Y-86814285D01*
X51504761Y-86795238D01*
X51542857Y-86776190D01*
X51561904Y-86757142D01*
X51580952Y-86719047D01*
X51580952Y-86680952D01*
X51561904Y-86642857D01*
X51542857Y-86623809D01*
X51504761Y-86604761D01*
X51428571Y-86585714D01*
X51333333Y-86585714D01*
X51257142Y-86604761D01*
X51219047Y-86623809D01*
X51200000Y-86642857D01*
X51180952Y-86680952D01*
X51580952Y-87195238D02*
X51580952Y-86966666D01*
X51580952Y-87080952D02*
X51180952Y-87080952D01*
X51238095Y-87042857D01*
X51276190Y-87004761D01*
X51295238Y-86966666D01*
X62247619Y-81292857D02*
X62266666Y-81311904D01*
X62323809Y-81330952D01*
X62361904Y-81330952D01*
X62419047Y-81311904D01*
X62457142Y-81273809D01*
X62476190Y-81235714D01*
X62495238Y-81159523D01*
X62495238Y-81102380D01*
X62476190Y-81026190D01*
X62457142Y-80988095D01*
X62419047Y-80950000D01*
X62361904Y-80930952D01*
X62323809Y-80930952D01*
X62266666Y-80950000D01*
X62247619Y-80969047D01*
X61904761Y-81064285D02*
X61904761Y-81330952D01*
X62000000Y-80911904D02*
X62095238Y-81197619D01*
X61847619Y-81197619D01*
X61619047Y-80930952D02*
X61580952Y-80930952D01*
X61542857Y-80950000D01*
X61523809Y-80969047D01*
X61504761Y-81007142D01*
X61485714Y-81083333D01*
X61485714Y-81178571D01*
X61504761Y-81254761D01*
X61523809Y-81292857D01*
X61542857Y-81311904D01*
X61580952Y-81330952D01*
X61619047Y-81330952D01*
X61657142Y-81311904D01*
X61676190Y-81292857D01*
X61695238Y-81254761D01*
X61714285Y-81178571D01*
X61714285Y-81083333D01*
X61695238Y-81007142D01*
X61676190Y-80969047D01*
X61657142Y-80950000D01*
X61619047Y-80930952D01*
X61333333Y-80969047D02*
X61314285Y-80950000D01*
X61276190Y-80930952D01*
X61180952Y-80930952D01*
X61142857Y-80950000D01*
X61123809Y-80969047D01*
X61104761Y-81007142D01*
X61104761Y-81045238D01*
X61123809Y-81102380D01*
X61352380Y-81330952D01*
X61104761Y-81330952D01*
X50597619Y-79842857D02*
X50616666Y-79861904D01*
X50673809Y-79880952D01*
X50711904Y-79880952D01*
X50769047Y-79861904D01*
X50807142Y-79823809D01*
X50826190Y-79785714D01*
X50845238Y-79709523D01*
X50845238Y-79652380D01*
X50826190Y-79576190D01*
X50807142Y-79538095D01*
X50769047Y-79500000D01*
X50711904Y-79480952D01*
X50673809Y-79480952D01*
X50616666Y-79500000D01*
X50597619Y-79519047D01*
X50254761Y-79614285D02*
X50254761Y-79880952D01*
X50350000Y-79461904D02*
X50445238Y-79747619D01*
X50197619Y-79747619D01*
X49969047Y-79480952D02*
X49930952Y-79480952D01*
X49892857Y-79500000D01*
X49873809Y-79519047D01*
X49854761Y-79557142D01*
X49835714Y-79633333D01*
X49835714Y-79728571D01*
X49854761Y-79804761D01*
X49873809Y-79842857D01*
X49892857Y-79861904D01*
X49930952Y-79880952D01*
X49969047Y-79880952D01*
X50007142Y-79861904D01*
X50026190Y-79842857D01*
X50045238Y-79804761D01*
X50064285Y-79728571D01*
X50064285Y-79633333D01*
X50045238Y-79557142D01*
X50026190Y-79519047D01*
X50007142Y-79500000D01*
X49969047Y-79480952D01*
X49702380Y-79480952D02*
X49454761Y-79480952D01*
X49588095Y-79633333D01*
X49530952Y-79633333D01*
X49492857Y-79652380D01*
X49473809Y-79671428D01*
X49454761Y-79709523D01*
X49454761Y-79804761D01*
X49473809Y-79842857D01*
X49492857Y-79861904D01*
X49530952Y-79880952D01*
X49645238Y-79880952D01*
X49683333Y-79861904D01*
X49702380Y-79842857D01*
X50597619Y-84392857D02*
X50616666Y-84411904D01*
X50673809Y-84430952D01*
X50711904Y-84430952D01*
X50769047Y-84411904D01*
X50807142Y-84373809D01*
X50826190Y-84335714D01*
X50845238Y-84259523D01*
X50845238Y-84202380D01*
X50826190Y-84126190D01*
X50807142Y-84088095D01*
X50769047Y-84050000D01*
X50711904Y-84030952D01*
X50673809Y-84030952D01*
X50616666Y-84050000D01*
X50597619Y-84069047D01*
X50254761Y-84164285D02*
X50254761Y-84430952D01*
X50350000Y-84011904D02*
X50445238Y-84297619D01*
X50197619Y-84297619D01*
X49969047Y-84030952D02*
X49930952Y-84030952D01*
X49892857Y-84050000D01*
X49873809Y-84069047D01*
X49854761Y-84107142D01*
X49835714Y-84183333D01*
X49835714Y-84278571D01*
X49854761Y-84354761D01*
X49873809Y-84392857D01*
X49892857Y-84411904D01*
X49930952Y-84430952D01*
X49969047Y-84430952D01*
X50007142Y-84411904D01*
X50026190Y-84392857D01*
X50045238Y-84354761D01*
X50064285Y-84278571D01*
X50064285Y-84183333D01*
X50045238Y-84107142D01*
X50026190Y-84069047D01*
X50007142Y-84050000D01*
X49969047Y-84030952D01*
X49492857Y-84164285D02*
X49492857Y-84430952D01*
X49588095Y-84011904D02*
X49683333Y-84297619D01*
X49435714Y-84297619D01*
X55992857Y-87352380D02*
X56011904Y-87333333D01*
X56030952Y-87276190D01*
X56030952Y-87238095D01*
X56011904Y-87180952D01*
X55973809Y-87142857D01*
X55935714Y-87123809D01*
X55859523Y-87104761D01*
X55802380Y-87104761D01*
X55726190Y-87123809D01*
X55688095Y-87142857D01*
X55650000Y-87180952D01*
X55630952Y-87238095D01*
X55630952Y-87276190D01*
X55650000Y-87333333D01*
X55669047Y-87352380D01*
X55764285Y-87695238D02*
X56030952Y-87695238D01*
X55611904Y-87600000D02*
X55897619Y-87504761D01*
X55897619Y-87752380D01*
X55630952Y-87980952D02*
X55630952Y-88019047D01*
X55650000Y-88057142D01*
X55669047Y-88076190D01*
X55707142Y-88095238D01*
X55783333Y-88114285D01*
X55878571Y-88114285D01*
X55954761Y-88095238D01*
X55992857Y-88076190D01*
X56011904Y-88057142D01*
X56030952Y-88019047D01*
X56030952Y-87980952D01*
X56011904Y-87942857D01*
X55992857Y-87923809D01*
X55954761Y-87904761D01*
X55878571Y-87885714D01*
X55783333Y-87885714D01*
X55707142Y-87904761D01*
X55669047Y-87923809D01*
X55650000Y-87942857D01*
X55630952Y-87980952D01*
X55630952Y-88476190D02*
X55630952Y-88285714D01*
X55821428Y-88266666D01*
X55802380Y-88285714D01*
X55783333Y-88323809D01*
X55783333Y-88419047D01*
X55802380Y-88457142D01*
X55821428Y-88476190D01*
X55859523Y-88495238D01*
X55954761Y-88495238D01*
X55992857Y-88476190D01*
X56011904Y-88457142D01*
X56030952Y-88419047D01*
X56030952Y-88323809D01*
X56011904Y-88285714D01*
X55992857Y-88266666D01*
X57992857Y-87352380D02*
X58011904Y-87333333D01*
X58030952Y-87276190D01*
X58030952Y-87238095D01*
X58011904Y-87180952D01*
X57973809Y-87142857D01*
X57935714Y-87123809D01*
X57859523Y-87104761D01*
X57802380Y-87104761D01*
X57726190Y-87123809D01*
X57688095Y-87142857D01*
X57650000Y-87180952D01*
X57630952Y-87238095D01*
X57630952Y-87276190D01*
X57650000Y-87333333D01*
X57669047Y-87352380D01*
X57764285Y-87695238D02*
X58030952Y-87695238D01*
X57611904Y-87600000D02*
X57897619Y-87504761D01*
X57897619Y-87752380D01*
X57630952Y-87980952D02*
X57630952Y-88019047D01*
X57650000Y-88057142D01*
X57669047Y-88076190D01*
X57707142Y-88095238D01*
X57783333Y-88114285D01*
X57878571Y-88114285D01*
X57954761Y-88095238D01*
X57992857Y-88076190D01*
X58011904Y-88057142D01*
X58030952Y-88019047D01*
X58030952Y-87980952D01*
X58011904Y-87942857D01*
X57992857Y-87923809D01*
X57954761Y-87904761D01*
X57878571Y-87885714D01*
X57783333Y-87885714D01*
X57707142Y-87904761D01*
X57669047Y-87923809D01*
X57650000Y-87942857D01*
X57630952Y-87980952D01*
X57630952Y-88457142D02*
X57630952Y-88380952D01*
X57650000Y-88342857D01*
X57669047Y-88323809D01*
X57726190Y-88285714D01*
X57802380Y-88266666D01*
X57954761Y-88266666D01*
X57992857Y-88285714D01*
X58011904Y-88304761D01*
X58030952Y-88342857D01*
X58030952Y-88419047D01*
X58011904Y-88457142D01*
X57992857Y-88476190D01*
X57954761Y-88495238D01*
X57859523Y-88495238D01*
X57821428Y-88476190D01*
X57802380Y-88457142D01*
X57783333Y-88419047D01*
X57783333Y-88342857D01*
X57802380Y-88304761D01*
X57821428Y-88285714D01*
X57859523Y-88266666D01*
X63097619Y-84042857D02*
X63116666Y-84061904D01*
X63173809Y-84080952D01*
X63211904Y-84080952D01*
X63269047Y-84061904D01*
X63307142Y-84023809D01*
X63326190Y-83985714D01*
X63345238Y-83909523D01*
X63345238Y-83852380D01*
X63326190Y-83776190D01*
X63307142Y-83738095D01*
X63269047Y-83700000D01*
X63211904Y-83680952D01*
X63173809Y-83680952D01*
X63116666Y-83700000D01*
X63097619Y-83719047D01*
X62754761Y-83814285D02*
X62754761Y-84080952D01*
X62850000Y-83661904D02*
X62945238Y-83947619D01*
X62697619Y-83947619D01*
X62469047Y-83680952D02*
X62430952Y-83680952D01*
X62392857Y-83700000D01*
X62373809Y-83719047D01*
X62354761Y-83757142D01*
X62335714Y-83833333D01*
X62335714Y-83928571D01*
X62354761Y-84004761D01*
X62373809Y-84042857D01*
X62392857Y-84061904D01*
X62430952Y-84080952D01*
X62469047Y-84080952D01*
X62507142Y-84061904D01*
X62526190Y-84042857D01*
X62545238Y-84004761D01*
X62564285Y-83928571D01*
X62564285Y-83833333D01*
X62545238Y-83757142D01*
X62526190Y-83719047D01*
X62507142Y-83700000D01*
X62469047Y-83680952D01*
X62202380Y-83680952D02*
X61935714Y-83680952D01*
X62107142Y-84080952D01*
X62247619Y-80042857D02*
X62266666Y-80061904D01*
X62323809Y-80080952D01*
X62361904Y-80080952D01*
X62419047Y-80061904D01*
X62457142Y-80023809D01*
X62476190Y-79985714D01*
X62495238Y-79909523D01*
X62495238Y-79852380D01*
X62476190Y-79776190D01*
X62457142Y-79738095D01*
X62419047Y-79700000D01*
X62361904Y-79680952D01*
X62323809Y-79680952D01*
X62266666Y-79700000D01*
X62247619Y-79719047D01*
X61904761Y-79814285D02*
X61904761Y-80080952D01*
X62000000Y-79661904D02*
X62095238Y-79947619D01*
X61847619Y-79947619D01*
X61619047Y-79680952D02*
X61580952Y-79680952D01*
X61542857Y-79700000D01*
X61523809Y-79719047D01*
X61504761Y-79757142D01*
X61485714Y-79833333D01*
X61485714Y-79928571D01*
X61504761Y-80004761D01*
X61523809Y-80042857D01*
X61542857Y-80061904D01*
X61580952Y-80080952D01*
X61619047Y-80080952D01*
X61657142Y-80061904D01*
X61676190Y-80042857D01*
X61695238Y-80004761D01*
X61714285Y-79928571D01*
X61714285Y-79833333D01*
X61695238Y-79757142D01*
X61676190Y-79719047D01*
X61657142Y-79700000D01*
X61619047Y-79680952D01*
X61257142Y-79852380D02*
X61295238Y-79833333D01*
X61314285Y-79814285D01*
X61333333Y-79776190D01*
X61333333Y-79757142D01*
X61314285Y-79719047D01*
X61295238Y-79700000D01*
X61257142Y-79680952D01*
X61180952Y-79680952D01*
X61142857Y-79700000D01*
X61123809Y-79719047D01*
X61104761Y-79757142D01*
X61104761Y-79776190D01*
X61123809Y-79814285D01*
X61142857Y-79833333D01*
X61180952Y-79852380D01*
X61257142Y-79852380D01*
X61295238Y-79871428D01*
X61314285Y-79890476D01*
X61333333Y-79928571D01*
X61333333Y-80004761D01*
X61314285Y-80042857D01*
X61295238Y-80061904D01*
X61257142Y-80080952D01*
X61180952Y-80080952D01*
X61142857Y-80061904D01*
X61123809Y-80042857D01*
X61104761Y-80004761D01*
X61104761Y-79928571D01*
X61123809Y-79890476D01*
X61142857Y-79871428D01*
X61180952Y-79852380D01*
X55022619Y-75312857D02*
X55041666Y-75331904D01*
X55098809Y-75350952D01*
X55136904Y-75350952D01*
X55194047Y-75331904D01*
X55232142Y-75293809D01*
X55251190Y-75255714D01*
X55270238Y-75179523D01*
X55270238Y-75122380D01*
X55251190Y-75046190D01*
X55232142Y-75008095D01*
X55194047Y-74970000D01*
X55136904Y-74950952D01*
X55098809Y-74950952D01*
X55041666Y-74970000D01*
X55022619Y-74989047D01*
X54679761Y-75084285D02*
X54679761Y-75350952D01*
X54775000Y-74931904D02*
X54870238Y-75217619D01*
X54622619Y-75217619D01*
X54394047Y-74950952D02*
X54355952Y-74950952D01*
X54317857Y-74970000D01*
X54298809Y-74989047D01*
X54279761Y-75027142D01*
X54260714Y-75103333D01*
X54260714Y-75198571D01*
X54279761Y-75274761D01*
X54298809Y-75312857D01*
X54317857Y-75331904D01*
X54355952Y-75350952D01*
X54394047Y-75350952D01*
X54432142Y-75331904D01*
X54451190Y-75312857D01*
X54470238Y-75274761D01*
X54489285Y-75198571D01*
X54489285Y-75103333D01*
X54470238Y-75027142D01*
X54451190Y-74989047D01*
X54432142Y-74970000D01*
X54394047Y-74950952D01*
X54070238Y-75350952D02*
X53994047Y-75350952D01*
X53955952Y-75331904D01*
X53936904Y-75312857D01*
X53898809Y-75255714D01*
X53879761Y-75179523D01*
X53879761Y-75027142D01*
X53898809Y-74989047D01*
X53917857Y-74970000D01*
X53955952Y-74950952D01*
X54032142Y-74950952D01*
X54070238Y-74970000D01*
X54089285Y-74989047D01*
X54108333Y-75027142D01*
X54108333Y-75122380D01*
X54089285Y-75160476D01*
X54070238Y-75179523D01*
X54032142Y-75198571D01*
X53955952Y-75198571D01*
X53917857Y-75179523D01*
X53898809Y-75160476D01*
X53879761Y-75122380D01*
X39597619Y-81992857D02*
X39616666Y-82011904D01*
X39673809Y-82030952D01*
X39711904Y-82030952D01*
X39769047Y-82011904D01*
X39807142Y-81973809D01*
X39826190Y-81935714D01*
X39845238Y-81859523D01*
X39845238Y-81802380D01*
X39826190Y-81726190D01*
X39807142Y-81688095D01*
X39769047Y-81650000D01*
X39711904Y-81630952D01*
X39673809Y-81630952D01*
X39616666Y-81650000D01*
X39597619Y-81669047D01*
X39254761Y-81764285D02*
X39254761Y-82030952D01*
X39350000Y-81611904D02*
X39445238Y-81897619D01*
X39197619Y-81897619D01*
X38835714Y-82030952D02*
X39064285Y-82030952D01*
X38950000Y-82030952D02*
X38950000Y-81630952D01*
X38988095Y-81688095D01*
X39026190Y-81726190D01*
X39064285Y-81745238D01*
X38588095Y-81630952D02*
X38550000Y-81630952D01*
X38511904Y-81650000D01*
X38492857Y-81669047D01*
X38473809Y-81707142D01*
X38454761Y-81783333D01*
X38454761Y-81878571D01*
X38473809Y-81954761D01*
X38492857Y-81992857D01*
X38511904Y-82011904D01*
X38550000Y-82030952D01*
X38588095Y-82030952D01*
X38626190Y-82011904D01*
X38645238Y-81992857D01*
X38664285Y-81954761D01*
X38683333Y-81878571D01*
X38683333Y-81783333D01*
X38664285Y-81707142D01*
X38645238Y-81669047D01*
X38626190Y-81650000D01*
X38588095Y-81630952D01*
X39597619Y-80442857D02*
X39616666Y-80461904D01*
X39673809Y-80480952D01*
X39711904Y-80480952D01*
X39769047Y-80461904D01*
X39807142Y-80423809D01*
X39826190Y-80385714D01*
X39845238Y-80309523D01*
X39845238Y-80252380D01*
X39826190Y-80176190D01*
X39807142Y-80138095D01*
X39769047Y-80100000D01*
X39711904Y-80080952D01*
X39673809Y-80080952D01*
X39616666Y-80100000D01*
X39597619Y-80119047D01*
X39254761Y-80214285D02*
X39254761Y-80480952D01*
X39350000Y-80061904D02*
X39445238Y-80347619D01*
X39197619Y-80347619D01*
X38835714Y-80480952D02*
X39064285Y-80480952D01*
X38950000Y-80480952D02*
X38950000Y-80080952D01*
X38988095Y-80138095D01*
X39026190Y-80176190D01*
X39064285Y-80195238D01*
X38454761Y-80480952D02*
X38683333Y-80480952D01*
X38569047Y-80480952D02*
X38569047Y-80080952D01*
X38607142Y-80138095D01*
X38645238Y-80176190D01*
X38683333Y-80195238D01*
X39597619Y-83542857D02*
X39616666Y-83561904D01*
X39673809Y-83580952D01*
X39711904Y-83580952D01*
X39769047Y-83561904D01*
X39807142Y-83523809D01*
X39826190Y-83485714D01*
X39845238Y-83409523D01*
X39845238Y-83352380D01*
X39826190Y-83276190D01*
X39807142Y-83238095D01*
X39769047Y-83200000D01*
X39711904Y-83180952D01*
X39673809Y-83180952D01*
X39616666Y-83200000D01*
X39597619Y-83219047D01*
X39254761Y-83314285D02*
X39254761Y-83580952D01*
X39350000Y-83161904D02*
X39445238Y-83447619D01*
X39197619Y-83447619D01*
X38835714Y-83580952D02*
X39064285Y-83580952D01*
X38950000Y-83580952D02*
X38950000Y-83180952D01*
X38988095Y-83238095D01*
X39026190Y-83276190D01*
X39064285Y-83295238D01*
X38683333Y-83219047D02*
X38664285Y-83200000D01*
X38626190Y-83180952D01*
X38530952Y-83180952D01*
X38492857Y-83200000D01*
X38473809Y-83219047D01*
X38454761Y-83257142D01*
X38454761Y-83295238D01*
X38473809Y-83352380D01*
X38702380Y-83580952D01*
X38454761Y-83580952D01*
X50597619Y-81359523D02*
X50616666Y-81378570D01*
X50673809Y-81397618D01*
X50711904Y-81397618D01*
X50769047Y-81378570D01*
X50807142Y-81340475D01*
X50826190Y-81302380D01*
X50845238Y-81226189D01*
X50845238Y-81169046D01*
X50826190Y-81092856D01*
X50807142Y-81054761D01*
X50769047Y-81016666D01*
X50711904Y-80997618D01*
X50673809Y-80997618D01*
X50616666Y-81016666D01*
X50597619Y-81035713D01*
X50254761Y-81130951D02*
X50254761Y-81397618D01*
X50350000Y-80978570D02*
X50445238Y-81264285D01*
X50197619Y-81264285D01*
X49835714Y-81397618D02*
X50064285Y-81397618D01*
X49950000Y-81397618D02*
X49950000Y-80997618D01*
X49988095Y-81054761D01*
X50026190Y-81092856D01*
X50064285Y-81111904D01*
X49645238Y-81397618D02*
X49569047Y-81397618D01*
X49530952Y-81378570D01*
X49511904Y-81359523D01*
X49473809Y-81302380D01*
X49454761Y-81226189D01*
X49454761Y-81073808D01*
X49473809Y-81035713D01*
X49492857Y-81016666D01*
X49530952Y-80997618D01*
X49607142Y-80997618D01*
X49645238Y-81016666D01*
X49664285Y-81035713D01*
X49683333Y-81073808D01*
X49683333Y-81169046D01*
X49664285Y-81207142D01*
X49645238Y-81226189D01*
X49607142Y-81245237D01*
X49530952Y-81245237D01*
X49492857Y-81226189D01*
X49473809Y-81207142D01*
X49454761Y-81169046D01*
X50597619Y-82876189D02*
X50616666Y-82895236D01*
X50673809Y-82914284D01*
X50711904Y-82914284D01*
X50769047Y-82895236D01*
X50807142Y-82857141D01*
X50826190Y-82819046D01*
X50845238Y-82742855D01*
X50845238Y-82685712D01*
X50826190Y-82609522D01*
X50807142Y-82571427D01*
X50769047Y-82533332D01*
X50711904Y-82514284D01*
X50673809Y-82514284D01*
X50616666Y-82533332D01*
X50597619Y-82552379D01*
X50254761Y-82647617D02*
X50254761Y-82914284D01*
X50350000Y-82495236D02*
X50445238Y-82780951D01*
X50197619Y-82780951D01*
X50064285Y-82552379D02*
X50045238Y-82533332D01*
X50007142Y-82514284D01*
X49911904Y-82514284D01*
X49873809Y-82533332D01*
X49854761Y-82552379D01*
X49835714Y-82590474D01*
X49835714Y-82628570D01*
X49854761Y-82685712D01*
X50083333Y-82914284D01*
X49835714Y-82914284D01*
X49454761Y-82914284D02*
X49683333Y-82914284D01*
X49569047Y-82914284D02*
X49569047Y-82514284D01*
X49607142Y-82571427D01*
X49645238Y-82609522D01*
X49683333Y-82628570D01*
X62547619Y-76292857D02*
X62566666Y-76311904D01*
X62623809Y-76330952D01*
X62661904Y-76330952D01*
X62719047Y-76311904D01*
X62757142Y-76273809D01*
X62776190Y-76235714D01*
X62795238Y-76159523D01*
X62795238Y-76102380D01*
X62776190Y-76026190D01*
X62757142Y-75988095D01*
X62719047Y-75950000D01*
X62661904Y-75930952D01*
X62623809Y-75930952D01*
X62566666Y-75950000D01*
X62547619Y-75969047D01*
X62204761Y-76064285D02*
X62204761Y-76330952D01*
X62300000Y-75911904D02*
X62395238Y-76197619D01*
X62147619Y-76197619D01*
X62014285Y-75969047D02*
X61995238Y-75950000D01*
X61957142Y-75930952D01*
X61861904Y-75930952D01*
X61823809Y-75950000D01*
X61804761Y-75969047D01*
X61785714Y-76007142D01*
X61785714Y-76045238D01*
X61804761Y-76102380D01*
X62033333Y-76330952D01*
X61785714Y-76330952D01*
X61423809Y-75930952D02*
X61614285Y-75930952D01*
X61633333Y-76121428D01*
X61614285Y-76102380D01*
X61576190Y-76083333D01*
X61480952Y-76083333D01*
X61442857Y-76102380D01*
X61423809Y-76121428D01*
X61404761Y-76159523D01*
X61404761Y-76254761D01*
X61423809Y-76292857D01*
X61442857Y-76311904D01*
X61480952Y-76330952D01*
X61576190Y-76330952D01*
X61614285Y-76311904D01*
X61633333Y-76292857D01*
X62547619Y-77692857D02*
X62566666Y-77711904D01*
X62623809Y-77730952D01*
X62661904Y-77730952D01*
X62719047Y-77711904D01*
X62757142Y-77673809D01*
X62776190Y-77635714D01*
X62795238Y-77559523D01*
X62795238Y-77502380D01*
X62776190Y-77426190D01*
X62757142Y-77388095D01*
X62719047Y-77350000D01*
X62661904Y-77330952D01*
X62623809Y-77330952D01*
X62566666Y-77350000D01*
X62547619Y-77369047D01*
X62204761Y-77464285D02*
X62204761Y-77730952D01*
X62300000Y-77311904D02*
X62395238Y-77597619D01*
X62147619Y-77597619D01*
X62014285Y-77369047D02*
X61995238Y-77350000D01*
X61957142Y-77330952D01*
X61861904Y-77330952D01*
X61823809Y-77350000D01*
X61804761Y-77369047D01*
X61785714Y-77407142D01*
X61785714Y-77445238D01*
X61804761Y-77502380D01*
X62033333Y-77730952D01*
X61785714Y-77730952D01*
X61442857Y-77330952D02*
X61519047Y-77330952D01*
X61557142Y-77350000D01*
X61576190Y-77369047D01*
X61614285Y-77426190D01*
X61633333Y-77502380D01*
X61633333Y-77654761D01*
X61614285Y-77692857D01*
X61595238Y-77711904D01*
X61557142Y-77730952D01*
X61480952Y-77730952D01*
X61442857Y-77711904D01*
X61423809Y-77692857D01*
X61404761Y-77654761D01*
X61404761Y-77559523D01*
X61423809Y-77521428D01*
X61442857Y-77502380D01*
X61480952Y-77483333D01*
X61557142Y-77483333D01*
X61595238Y-77502380D01*
X61614285Y-77521428D01*
X61633333Y-77559523D01*
X51542857Y-111052380D02*
X51561904Y-111033333D01*
X51580952Y-110976190D01*
X51580952Y-110938095D01*
X51561904Y-110880952D01*
X51523809Y-110842857D01*
X51485714Y-110823809D01*
X51409523Y-110804761D01*
X51352380Y-110804761D01*
X51276190Y-110823809D01*
X51238095Y-110842857D01*
X51200000Y-110880952D01*
X51180952Y-110938095D01*
X51180952Y-110976190D01*
X51200000Y-111033333D01*
X51219047Y-111052380D01*
X51180952Y-111414285D02*
X51180952Y-111223809D01*
X51371428Y-111204761D01*
X51352380Y-111223809D01*
X51333333Y-111261904D01*
X51333333Y-111357142D01*
X51352380Y-111395238D01*
X51371428Y-111414285D01*
X51409523Y-111433333D01*
X51504761Y-111433333D01*
X51542857Y-111414285D01*
X51561904Y-111395238D01*
X51580952Y-111357142D01*
X51580952Y-111261904D01*
X51561904Y-111223809D01*
X51542857Y-111204761D01*
X51180952Y-111680952D02*
X51180952Y-111719047D01*
X51200000Y-111757142D01*
X51219047Y-111776190D01*
X51257142Y-111795238D01*
X51333333Y-111814285D01*
X51428571Y-111814285D01*
X51504761Y-111795238D01*
X51542857Y-111776190D01*
X51561904Y-111757142D01*
X51580952Y-111719047D01*
X51580952Y-111680952D01*
X51561904Y-111642857D01*
X51542857Y-111623809D01*
X51504761Y-111604761D01*
X51428571Y-111585714D01*
X51333333Y-111585714D01*
X51257142Y-111604761D01*
X51219047Y-111623809D01*
X51200000Y-111642857D01*
X51180952Y-111680952D01*
X51580952Y-112195238D02*
X51580952Y-111966666D01*
X51580952Y-112080952D02*
X51180952Y-112080952D01*
X51238095Y-112042857D01*
X51276190Y-112004761D01*
X51295238Y-111966666D01*
X62247619Y-106292857D02*
X62266666Y-106311904D01*
X62323809Y-106330952D01*
X62361904Y-106330952D01*
X62419047Y-106311904D01*
X62457142Y-106273809D01*
X62476190Y-106235714D01*
X62495238Y-106159523D01*
X62495238Y-106102380D01*
X62476190Y-106026190D01*
X62457142Y-105988095D01*
X62419047Y-105950000D01*
X62361904Y-105930952D01*
X62323809Y-105930952D01*
X62266666Y-105950000D01*
X62247619Y-105969047D01*
X61885714Y-105930952D02*
X62076190Y-105930952D01*
X62095238Y-106121428D01*
X62076190Y-106102380D01*
X62038095Y-106083333D01*
X61942857Y-106083333D01*
X61904761Y-106102380D01*
X61885714Y-106121428D01*
X61866666Y-106159523D01*
X61866666Y-106254761D01*
X61885714Y-106292857D01*
X61904761Y-106311904D01*
X61942857Y-106330952D01*
X62038095Y-106330952D01*
X62076190Y-106311904D01*
X62095238Y-106292857D01*
X61619047Y-105930952D02*
X61580952Y-105930952D01*
X61542857Y-105950000D01*
X61523809Y-105969047D01*
X61504761Y-106007142D01*
X61485714Y-106083333D01*
X61485714Y-106178571D01*
X61504761Y-106254761D01*
X61523809Y-106292857D01*
X61542857Y-106311904D01*
X61580952Y-106330952D01*
X61619047Y-106330952D01*
X61657142Y-106311904D01*
X61676190Y-106292857D01*
X61695238Y-106254761D01*
X61714285Y-106178571D01*
X61714285Y-106083333D01*
X61695238Y-106007142D01*
X61676190Y-105969047D01*
X61657142Y-105950000D01*
X61619047Y-105930952D01*
X61333333Y-105969047D02*
X61314285Y-105950000D01*
X61276190Y-105930952D01*
X61180952Y-105930952D01*
X61142857Y-105950000D01*
X61123809Y-105969047D01*
X61104761Y-106007142D01*
X61104761Y-106045238D01*
X61123809Y-106102380D01*
X61352380Y-106330952D01*
X61104761Y-106330952D01*
X50597619Y-104842857D02*
X50616666Y-104861904D01*
X50673809Y-104880952D01*
X50711904Y-104880952D01*
X50769047Y-104861904D01*
X50807142Y-104823809D01*
X50826190Y-104785714D01*
X50845238Y-104709523D01*
X50845238Y-104652380D01*
X50826190Y-104576190D01*
X50807142Y-104538095D01*
X50769047Y-104500000D01*
X50711904Y-104480952D01*
X50673809Y-104480952D01*
X50616666Y-104500000D01*
X50597619Y-104519047D01*
X50235714Y-104480952D02*
X50426190Y-104480952D01*
X50445238Y-104671428D01*
X50426190Y-104652380D01*
X50388095Y-104633333D01*
X50292857Y-104633333D01*
X50254761Y-104652380D01*
X50235714Y-104671428D01*
X50216666Y-104709523D01*
X50216666Y-104804761D01*
X50235714Y-104842857D01*
X50254761Y-104861904D01*
X50292857Y-104880952D01*
X50388095Y-104880952D01*
X50426190Y-104861904D01*
X50445238Y-104842857D01*
X49969047Y-104480952D02*
X49930952Y-104480952D01*
X49892857Y-104500000D01*
X49873809Y-104519047D01*
X49854761Y-104557142D01*
X49835714Y-104633333D01*
X49835714Y-104728571D01*
X49854761Y-104804761D01*
X49873809Y-104842857D01*
X49892857Y-104861904D01*
X49930952Y-104880952D01*
X49969047Y-104880952D01*
X50007142Y-104861904D01*
X50026190Y-104842857D01*
X50045238Y-104804761D01*
X50064285Y-104728571D01*
X50064285Y-104633333D01*
X50045238Y-104557142D01*
X50026190Y-104519047D01*
X50007142Y-104500000D01*
X49969047Y-104480952D01*
X49702380Y-104480952D02*
X49454761Y-104480952D01*
X49588095Y-104633333D01*
X49530952Y-104633333D01*
X49492857Y-104652380D01*
X49473809Y-104671428D01*
X49454761Y-104709523D01*
X49454761Y-104804761D01*
X49473809Y-104842857D01*
X49492857Y-104861904D01*
X49530952Y-104880952D01*
X49645238Y-104880952D01*
X49683333Y-104861904D01*
X49702380Y-104842857D01*
X50597619Y-109392857D02*
X50616666Y-109411904D01*
X50673809Y-109430952D01*
X50711904Y-109430952D01*
X50769047Y-109411904D01*
X50807142Y-109373809D01*
X50826190Y-109335714D01*
X50845238Y-109259523D01*
X50845238Y-109202380D01*
X50826190Y-109126190D01*
X50807142Y-109088095D01*
X50769047Y-109050000D01*
X50711904Y-109030952D01*
X50673809Y-109030952D01*
X50616666Y-109050000D01*
X50597619Y-109069047D01*
X50235714Y-109030952D02*
X50426190Y-109030952D01*
X50445238Y-109221428D01*
X50426190Y-109202380D01*
X50388095Y-109183333D01*
X50292857Y-109183333D01*
X50254761Y-109202380D01*
X50235714Y-109221428D01*
X50216666Y-109259523D01*
X50216666Y-109354761D01*
X50235714Y-109392857D01*
X50254761Y-109411904D01*
X50292857Y-109430952D01*
X50388095Y-109430952D01*
X50426190Y-109411904D01*
X50445238Y-109392857D01*
X49969047Y-109030952D02*
X49930952Y-109030952D01*
X49892857Y-109050000D01*
X49873809Y-109069047D01*
X49854761Y-109107142D01*
X49835714Y-109183333D01*
X49835714Y-109278571D01*
X49854761Y-109354761D01*
X49873809Y-109392857D01*
X49892857Y-109411904D01*
X49930952Y-109430952D01*
X49969047Y-109430952D01*
X50007142Y-109411904D01*
X50026190Y-109392857D01*
X50045238Y-109354761D01*
X50064285Y-109278571D01*
X50064285Y-109183333D01*
X50045238Y-109107142D01*
X50026190Y-109069047D01*
X50007142Y-109050000D01*
X49969047Y-109030952D01*
X49492857Y-109164285D02*
X49492857Y-109430952D01*
X49588095Y-109011904D02*
X49683333Y-109297619D01*
X49435714Y-109297619D01*
X55992857Y-112352380D02*
X56011904Y-112333333D01*
X56030952Y-112276190D01*
X56030952Y-112238095D01*
X56011904Y-112180952D01*
X55973809Y-112142857D01*
X55935714Y-112123809D01*
X55859523Y-112104761D01*
X55802380Y-112104761D01*
X55726190Y-112123809D01*
X55688095Y-112142857D01*
X55650000Y-112180952D01*
X55630952Y-112238095D01*
X55630952Y-112276190D01*
X55650000Y-112333333D01*
X55669047Y-112352380D01*
X55630952Y-112714285D02*
X55630952Y-112523809D01*
X55821428Y-112504761D01*
X55802380Y-112523809D01*
X55783333Y-112561904D01*
X55783333Y-112657142D01*
X55802380Y-112695238D01*
X55821428Y-112714285D01*
X55859523Y-112733333D01*
X55954761Y-112733333D01*
X55992857Y-112714285D01*
X56011904Y-112695238D01*
X56030952Y-112657142D01*
X56030952Y-112561904D01*
X56011904Y-112523809D01*
X55992857Y-112504761D01*
X55630952Y-112980952D02*
X55630952Y-113019047D01*
X55650000Y-113057142D01*
X55669047Y-113076190D01*
X55707142Y-113095238D01*
X55783333Y-113114285D01*
X55878571Y-113114285D01*
X55954761Y-113095238D01*
X55992857Y-113076190D01*
X56011904Y-113057142D01*
X56030952Y-113019047D01*
X56030952Y-112980952D01*
X56011904Y-112942857D01*
X55992857Y-112923809D01*
X55954761Y-112904761D01*
X55878571Y-112885714D01*
X55783333Y-112885714D01*
X55707142Y-112904761D01*
X55669047Y-112923809D01*
X55650000Y-112942857D01*
X55630952Y-112980952D01*
X55630952Y-113476190D02*
X55630952Y-113285714D01*
X55821428Y-113266666D01*
X55802380Y-113285714D01*
X55783333Y-113323809D01*
X55783333Y-113419047D01*
X55802380Y-113457142D01*
X55821428Y-113476190D01*
X55859523Y-113495238D01*
X55954761Y-113495238D01*
X55992857Y-113476190D01*
X56011904Y-113457142D01*
X56030952Y-113419047D01*
X56030952Y-113323809D01*
X56011904Y-113285714D01*
X55992857Y-113266666D01*
X57992857Y-112352380D02*
X58011904Y-112333333D01*
X58030952Y-112276190D01*
X58030952Y-112238095D01*
X58011904Y-112180952D01*
X57973809Y-112142857D01*
X57935714Y-112123809D01*
X57859523Y-112104761D01*
X57802380Y-112104761D01*
X57726190Y-112123809D01*
X57688095Y-112142857D01*
X57650000Y-112180952D01*
X57630952Y-112238095D01*
X57630952Y-112276190D01*
X57650000Y-112333333D01*
X57669047Y-112352380D01*
X57630952Y-112714285D02*
X57630952Y-112523809D01*
X57821428Y-112504761D01*
X57802380Y-112523809D01*
X57783333Y-112561904D01*
X57783333Y-112657142D01*
X57802380Y-112695238D01*
X57821428Y-112714285D01*
X57859523Y-112733333D01*
X57954761Y-112733333D01*
X57992857Y-112714285D01*
X58011904Y-112695238D01*
X58030952Y-112657142D01*
X58030952Y-112561904D01*
X58011904Y-112523809D01*
X57992857Y-112504761D01*
X57630952Y-112980952D02*
X57630952Y-113019047D01*
X57650000Y-113057142D01*
X57669047Y-113076190D01*
X57707142Y-113095238D01*
X57783333Y-113114285D01*
X57878571Y-113114285D01*
X57954761Y-113095238D01*
X57992857Y-113076190D01*
X58011904Y-113057142D01*
X58030952Y-113019047D01*
X58030952Y-112980952D01*
X58011904Y-112942857D01*
X57992857Y-112923809D01*
X57954761Y-112904761D01*
X57878571Y-112885714D01*
X57783333Y-112885714D01*
X57707142Y-112904761D01*
X57669047Y-112923809D01*
X57650000Y-112942857D01*
X57630952Y-112980952D01*
X57630952Y-113457142D02*
X57630952Y-113380952D01*
X57650000Y-113342857D01*
X57669047Y-113323809D01*
X57726190Y-113285714D01*
X57802380Y-113266666D01*
X57954761Y-113266666D01*
X57992857Y-113285714D01*
X58011904Y-113304761D01*
X58030952Y-113342857D01*
X58030952Y-113419047D01*
X58011904Y-113457142D01*
X57992857Y-113476190D01*
X57954761Y-113495238D01*
X57859523Y-113495238D01*
X57821428Y-113476190D01*
X57802380Y-113457142D01*
X57783333Y-113419047D01*
X57783333Y-113342857D01*
X57802380Y-113304761D01*
X57821428Y-113285714D01*
X57859523Y-113266666D01*
X63097619Y-109042857D02*
X63116666Y-109061904D01*
X63173809Y-109080952D01*
X63211904Y-109080952D01*
X63269047Y-109061904D01*
X63307142Y-109023809D01*
X63326190Y-108985714D01*
X63345238Y-108909523D01*
X63345238Y-108852380D01*
X63326190Y-108776190D01*
X63307142Y-108738095D01*
X63269047Y-108700000D01*
X63211904Y-108680952D01*
X63173809Y-108680952D01*
X63116666Y-108700000D01*
X63097619Y-108719047D01*
X62735714Y-108680952D02*
X62926190Y-108680952D01*
X62945238Y-108871428D01*
X62926190Y-108852380D01*
X62888095Y-108833333D01*
X62792857Y-108833333D01*
X62754761Y-108852380D01*
X62735714Y-108871428D01*
X62716666Y-108909523D01*
X62716666Y-109004761D01*
X62735714Y-109042857D01*
X62754761Y-109061904D01*
X62792857Y-109080952D01*
X62888095Y-109080952D01*
X62926190Y-109061904D01*
X62945238Y-109042857D01*
X62469047Y-108680952D02*
X62430952Y-108680952D01*
X62392857Y-108700000D01*
X62373809Y-108719047D01*
X62354761Y-108757142D01*
X62335714Y-108833333D01*
X62335714Y-108928571D01*
X62354761Y-109004761D01*
X62373809Y-109042857D01*
X62392857Y-109061904D01*
X62430952Y-109080952D01*
X62469047Y-109080952D01*
X62507142Y-109061904D01*
X62526190Y-109042857D01*
X62545238Y-109004761D01*
X62564285Y-108928571D01*
X62564285Y-108833333D01*
X62545238Y-108757142D01*
X62526190Y-108719047D01*
X62507142Y-108700000D01*
X62469047Y-108680952D01*
X62202380Y-108680952D02*
X61935714Y-108680952D01*
X62107142Y-109080952D01*
X62247619Y-105042857D02*
X62266666Y-105061904D01*
X62323809Y-105080952D01*
X62361904Y-105080952D01*
X62419047Y-105061904D01*
X62457142Y-105023809D01*
X62476190Y-104985714D01*
X62495238Y-104909523D01*
X62495238Y-104852380D01*
X62476190Y-104776190D01*
X62457142Y-104738095D01*
X62419047Y-104700000D01*
X62361904Y-104680952D01*
X62323809Y-104680952D01*
X62266666Y-104700000D01*
X62247619Y-104719047D01*
X61885714Y-104680952D02*
X62076190Y-104680952D01*
X62095238Y-104871428D01*
X62076190Y-104852380D01*
X62038095Y-104833333D01*
X61942857Y-104833333D01*
X61904761Y-104852380D01*
X61885714Y-104871428D01*
X61866666Y-104909523D01*
X61866666Y-105004761D01*
X61885714Y-105042857D01*
X61904761Y-105061904D01*
X61942857Y-105080952D01*
X62038095Y-105080952D01*
X62076190Y-105061904D01*
X62095238Y-105042857D01*
X61619047Y-104680952D02*
X61580952Y-104680952D01*
X61542857Y-104700000D01*
X61523809Y-104719047D01*
X61504761Y-104757142D01*
X61485714Y-104833333D01*
X61485714Y-104928571D01*
X61504761Y-105004761D01*
X61523809Y-105042857D01*
X61542857Y-105061904D01*
X61580952Y-105080952D01*
X61619047Y-105080952D01*
X61657142Y-105061904D01*
X61676190Y-105042857D01*
X61695238Y-105004761D01*
X61714285Y-104928571D01*
X61714285Y-104833333D01*
X61695238Y-104757142D01*
X61676190Y-104719047D01*
X61657142Y-104700000D01*
X61619047Y-104680952D01*
X61257142Y-104852380D02*
X61295238Y-104833333D01*
X61314285Y-104814285D01*
X61333333Y-104776190D01*
X61333333Y-104757142D01*
X61314285Y-104719047D01*
X61295238Y-104700000D01*
X61257142Y-104680952D01*
X61180952Y-104680952D01*
X61142857Y-104700000D01*
X61123809Y-104719047D01*
X61104761Y-104757142D01*
X61104761Y-104776190D01*
X61123809Y-104814285D01*
X61142857Y-104833333D01*
X61180952Y-104852380D01*
X61257142Y-104852380D01*
X61295238Y-104871428D01*
X61314285Y-104890476D01*
X61333333Y-104928571D01*
X61333333Y-105004761D01*
X61314285Y-105042857D01*
X61295238Y-105061904D01*
X61257142Y-105080952D01*
X61180952Y-105080952D01*
X61142857Y-105061904D01*
X61123809Y-105042857D01*
X61104761Y-105004761D01*
X61104761Y-104928571D01*
X61123809Y-104890476D01*
X61142857Y-104871428D01*
X61180952Y-104852380D01*
X55022619Y-100312857D02*
X55041666Y-100331904D01*
X55098809Y-100350952D01*
X55136904Y-100350952D01*
X55194047Y-100331904D01*
X55232142Y-100293809D01*
X55251190Y-100255714D01*
X55270238Y-100179523D01*
X55270238Y-100122380D01*
X55251190Y-100046190D01*
X55232142Y-100008095D01*
X55194047Y-99970000D01*
X55136904Y-99950952D01*
X55098809Y-99950952D01*
X55041666Y-99970000D01*
X55022619Y-99989047D01*
X54660714Y-99950952D02*
X54851190Y-99950952D01*
X54870238Y-100141428D01*
X54851190Y-100122380D01*
X54813095Y-100103333D01*
X54717857Y-100103333D01*
X54679761Y-100122380D01*
X54660714Y-100141428D01*
X54641666Y-100179523D01*
X54641666Y-100274761D01*
X54660714Y-100312857D01*
X54679761Y-100331904D01*
X54717857Y-100350952D01*
X54813095Y-100350952D01*
X54851190Y-100331904D01*
X54870238Y-100312857D01*
X54394047Y-99950952D02*
X54355952Y-99950952D01*
X54317857Y-99970000D01*
X54298809Y-99989047D01*
X54279761Y-100027142D01*
X54260714Y-100103333D01*
X54260714Y-100198571D01*
X54279761Y-100274761D01*
X54298809Y-100312857D01*
X54317857Y-100331904D01*
X54355952Y-100350952D01*
X54394047Y-100350952D01*
X54432142Y-100331904D01*
X54451190Y-100312857D01*
X54470238Y-100274761D01*
X54489285Y-100198571D01*
X54489285Y-100103333D01*
X54470238Y-100027142D01*
X54451190Y-99989047D01*
X54432142Y-99970000D01*
X54394047Y-99950952D01*
X54070238Y-100350952D02*
X53994047Y-100350952D01*
X53955952Y-100331904D01*
X53936904Y-100312857D01*
X53898809Y-100255714D01*
X53879761Y-100179523D01*
X53879761Y-100027142D01*
X53898809Y-99989047D01*
X53917857Y-99970000D01*
X53955952Y-99950952D01*
X54032142Y-99950952D01*
X54070238Y-99970000D01*
X54089285Y-99989047D01*
X54108333Y-100027142D01*
X54108333Y-100122380D01*
X54089285Y-100160476D01*
X54070238Y-100179523D01*
X54032142Y-100198571D01*
X53955952Y-100198571D01*
X53917857Y-100179523D01*
X53898809Y-100160476D01*
X53879761Y-100122380D01*
X39597619Y-106992857D02*
X39616666Y-107011904D01*
X39673809Y-107030952D01*
X39711904Y-107030952D01*
X39769047Y-107011904D01*
X39807142Y-106973809D01*
X39826190Y-106935714D01*
X39845238Y-106859523D01*
X39845238Y-106802380D01*
X39826190Y-106726190D01*
X39807142Y-106688095D01*
X39769047Y-106650000D01*
X39711904Y-106630952D01*
X39673809Y-106630952D01*
X39616666Y-106650000D01*
X39597619Y-106669047D01*
X39235714Y-106630952D02*
X39426190Y-106630952D01*
X39445238Y-106821428D01*
X39426190Y-106802380D01*
X39388095Y-106783333D01*
X39292857Y-106783333D01*
X39254761Y-106802380D01*
X39235714Y-106821428D01*
X39216666Y-106859523D01*
X39216666Y-106954761D01*
X39235714Y-106992857D01*
X39254761Y-107011904D01*
X39292857Y-107030952D01*
X39388095Y-107030952D01*
X39426190Y-107011904D01*
X39445238Y-106992857D01*
X38835714Y-107030952D02*
X39064285Y-107030952D01*
X38950000Y-107030952D02*
X38950000Y-106630952D01*
X38988095Y-106688095D01*
X39026190Y-106726190D01*
X39064285Y-106745238D01*
X38588095Y-106630952D02*
X38550000Y-106630952D01*
X38511904Y-106650000D01*
X38492857Y-106669047D01*
X38473809Y-106707142D01*
X38454761Y-106783333D01*
X38454761Y-106878571D01*
X38473809Y-106954761D01*
X38492857Y-106992857D01*
X38511904Y-107011904D01*
X38550000Y-107030952D01*
X38588095Y-107030952D01*
X38626190Y-107011904D01*
X38645238Y-106992857D01*
X38664285Y-106954761D01*
X38683333Y-106878571D01*
X38683333Y-106783333D01*
X38664285Y-106707142D01*
X38645238Y-106669047D01*
X38626190Y-106650000D01*
X38588095Y-106630952D01*
X39597619Y-105442857D02*
X39616666Y-105461904D01*
X39673809Y-105480952D01*
X39711904Y-105480952D01*
X39769047Y-105461904D01*
X39807142Y-105423809D01*
X39826190Y-105385714D01*
X39845238Y-105309523D01*
X39845238Y-105252380D01*
X39826190Y-105176190D01*
X39807142Y-105138095D01*
X39769047Y-105100000D01*
X39711904Y-105080952D01*
X39673809Y-105080952D01*
X39616666Y-105100000D01*
X39597619Y-105119047D01*
X39235714Y-105080952D02*
X39426190Y-105080952D01*
X39445238Y-105271428D01*
X39426190Y-105252380D01*
X39388095Y-105233333D01*
X39292857Y-105233333D01*
X39254761Y-105252380D01*
X39235714Y-105271428D01*
X39216666Y-105309523D01*
X39216666Y-105404761D01*
X39235714Y-105442857D01*
X39254761Y-105461904D01*
X39292857Y-105480952D01*
X39388095Y-105480952D01*
X39426190Y-105461904D01*
X39445238Y-105442857D01*
X38835714Y-105480952D02*
X39064285Y-105480952D01*
X38950000Y-105480952D02*
X38950000Y-105080952D01*
X38988095Y-105138095D01*
X39026190Y-105176190D01*
X39064285Y-105195238D01*
X38454761Y-105480952D02*
X38683333Y-105480952D01*
X38569047Y-105480952D02*
X38569047Y-105080952D01*
X38607142Y-105138095D01*
X38645238Y-105176190D01*
X38683333Y-105195238D01*
X39597619Y-108542857D02*
X39616666Y-108561904D01*
X39673809Y-108580952D01*
X39711904Y-108580952D01*
X39769047Y-108561904D01*
X39807142Y-108523809D01*
X39826190Y-108485714D01*
X39845238Y-108409523D01*
X39845238Y-108352380D01*
X39826190Y-108276190D01*
X39807142Y-108238095D01*
X39769047Y-108200000D01*
X39711904Y-108180952D01*
X39673809Y-108180952D01*
X39616666Y-108200000D01*
X39597619Y-108219047D01*
X39235714Y-108180952D02*
X39426190Y-108180952D01*
X39445238Y-108371428D01*
X39426190Y-108352380D01*
X39388095Y-108333333D01*
X39292857Y-108333333D01*
X39254761Y-108352380D01*
X39235714Y-108371428D01*
X39216666Y-108409523D01*
X39216666Y-108504761D01*
X39235714Y-108542857D01*
X39254761Y-108561904D01*
X39292857Y-108580952D01*
X39388095Y-108580952D01*
X39426190Y-108561904D01*
X39445238Y-108542857D01*
X38835714Y-108580952D02*
X39064285Y-108580952D01*
X38950000Y-108580952D02*
X38950000Y-108180952D01*
X38988095Y-108238095D01*
X39026190Y-108276190D01*
X39064285Y-108295238D01*
X38683333Y-108219047D02*
X38664285Y-108200000D01*
X38626190Y-108180952D01*
X38530952Y-108180952D01*
X38492857Y-108200000D01*
X38473809Y-108219047D01*
X38454761Y-108257142D01*
X38454761Y-108295238D01*
X38473809Y-108352380D01*
X38702380Y-108580952D01*
X38454761Y-108580952D01*
X50597619Y-106359523D02*
X50616666Y-106378570D01*
X50673809Y-106397618D01*
X50711904Y-106397618D01*
X50769047Y-106378570D01*
X50807142Y-106340475D01*
X50826190Y-106302380D01*
X50845238Y-106226189D01*
X50845238Y-106169046D01*
X50826190Y-106092856D01*
X50807142Y-106054761D01*
X50769047Y-106016666D01*
X50711904Y-105997618D01*
X50673809Y-105997618D01*
X50616666Y-106016666D01*
X50597619Y-106035713D01*
X50235714Y-105997618D02*
X50426190Y-105997618D01*
X50445238Y-106188094D01*
X50426190Y-106169046D01*
X50388095Y-106149999D01*
X50292857Y-106149999D01*
X50254761Y-106169046D01*
X50235714Y-106188094D01*
X50216666Y-106226189D01*
X50216666Y-106321427D01*
X50235714Y-106359523D01*
X50254761Y-106378570D01*
X50292857Y-106397618D01*
X50388095Y-106397618D01*
X50426190Y-106378570D01*
X50445238Y-106359523D01*
X49835714Y-106397618D02*
X50064285Y-106397618D01*
X49950000Y-106397618D02*
X49950000Y-105997618D01*
X49988095Y-106054761D01*
X50026190Y-106092856D01*
X50064285Y-106111904D01*
X49645238Y-106397618D02*
X49569047Y-106397618D01*
X49530952Y-106378570D01*
X49511904Y-106359523D01*
X49473809Y-106302380D01*
X49454761Y-106226189D01*
X49454761Y-106073808D01*
X49473809Y-106035713D01*
X49492857Y-106016666D01*
X49530952Y-105997618D01*
X49607142Y-105997618D01*
X49645238Y-106016666D01*
X49664285Y-106035713D01*
X49683333Y-106073808D01*
X49683333Y-106169046D01*
X49664285Y-106207142D01*
X49645238Y-106226189D01*
X49607142Y-106245237D01*
X49530952Y-106245237D01*
X49492857Y-106226189D01*
X49473809Y-106207142D01*
X49454761Y-106169046D01*
X50597619Y-107876189D02*
X50616666Y-107895236D01*
X50673809Y-107914284D01*
X50711904Y-107914284D01*
X50769047Y-107895236D01*
X50807142Y-107857141D01*
X50826190Y-107819046D01*
X50845238Y-107742855D01*
X50845238Y-107685712D01*
X50826190Y-107609522D01*
X50807142Y-107571427D01*
X50769047Y-107533332D01*
X50711904Y-107514284D01*
X50673809Y-107514284D01*
X50616666Y-107533332D01*
X50597619Y-107552379D01*
X50235714Y-107514284D02*
X50426190Y-107514284D01*
X50445238Y-107704760D01*
X50426190Y-107685712D01*
X50388095Y-107666665D01*
X50292857Y-107666665D01*
X50254761Y-107685712D01*
X50235714Y-107704760D01*
X50216666Y-107742855D01*
X50216666Y-107838093D01*
X50235714Y-107876189D01*
X50254761Y-107895236D01*
X50292857Y-107914284D01*
X50388095Y-107914284D01*
X50426190Y-107895236D01*
X50445238Y-107876189D01*
X50064285Y-107552379D02*
X50045238Y-107533332D01*
X50007142Y-107514284D01*
X49911904Y-107514284D01*
X49873809Y-107533332D01*
X49854761Y-107552379D01*
X49835714Y-107590474D01*
X49835714Y-107628570D01*
X49854761Y-107685712D01*
X50083333Y-107914284D01*
X49835714Y-107914284D01*
X49454761Y-107914284D02*
X49683333Y-107914284D01*
X49569047Y-107914284D02*
X49569047Y-107514284D01*
X49607142Y-107571427D01*
X49645238Y-107609522D01*
X49683333Y-107628570D01*
X62547619Y-101292857D02*
X62566666Y-101311904D01*
X62623809Y-101330952D01*
X62661904Y-101330952D01*
X62719047Y-101311904D01*
X62757142Y-101273809D01*
X62776190Y-101235714D01*
X62795238Y-101159523D01*
X62795238Y-101102380D01*
X62776190Y-101026190D01*
X62757142Y-100988095D01*
X62719047Y-100950000D01*
X62661904Y-100930952D01*
X62623809Y-100930952D01*
X62566666Y-100950000D01*
X62547619Y-100969047D01*
X62185714Y-100930952D02*
X62376190Y-100930952D01*
X62395238Y-101121428D01*
X62376190Y-101102380D01*
X62338095Y-101083333D01*
X62242857Y-101083333D01*
X62204761Y-101102380D01*
X62185714Y-101121428D01*
X62166666Y-101159523D01*
X62166666Y-101254761D01*
X62185714Y-101292857D01*
X62204761Y-101311904D01*
X62242857Y-101330952D01*
X62338095Y-101330952D01*
X62376190Y-101311904D01*
X62395238Y-101292857D01*
X62014285Y-100969047D02*
X61995238Y-100950000D01*
X61957142Y-100930952D01*
X61861904Y-100930952D01*
X61823809Y-100950000D01*
X61804761Y-100969047D01*
X61785714Y-101007142D01*
X61785714Y-101045238D01*
X61804761Y-101102380D01*
X62033333Y-101330952D01*
X61785714Y-101330952D01*
X61423809Y-100930952D02*
X61614285Y-100930952D01*
X61633333Y-101121428D01*
X61614285Y-101102380D01*
X61576190Y-101083333D01*
X61480952Y-101083333D01*
X61442857Y-101102380D01*
X61423809Y-101121428D01*
X61404761Y-101159523D01*
X61404761Y-101254761D01*
X61423809Y-101292857D01*
X61442857Y-101311904D01*
X61480952Y-101330952D01*
X61576190Y-101330952D01*
X61614285Y-101311904D01*
X61633333Y-101292857D01*
X62547619Y-102692857D02*
X62566666Y-102711904D01*
X62623809Y-102730952D01*
X62661904Y-102730952D01*
X62719047Y-102711904D01*
X62757142Y-102673809D01*
X62776190Y-102635714D01*
X62795238Y-102559523D01*
X62795238Y-102502380D01*
X62776190Y-102426190D01*
X62757142Y-102388095D01*
X62719047Y-102350000D01*
X62661904Y-102330952D01*
X62623809Y-102330952D01*
X62566666Y-102350000D01*
X62547619Y-102369047D01*
X62185714Y-102330952D02*
X62376190Y-102330952D01*
X62395238Y-102521428D01*
X62376190Y-102502380D01*
X62338095Y-102483333D01*
X62242857Y-102483333D01*
X62204761Y-102502380D01*
X62185714Y-102521428D01*
X62166666Y-102559523D01*
X62166666Y-102654761D01*
X62185714Y-102692857D01*
X62204761Y-102711904D01*
X62242857Y-102730952D01*
X62338095Y-102730952D01*
X62376190Y-102711904D01*
X62395238Y-102692857D01*
X62014285Y-102369047D02*
X61995238Y-102350000D01*
X61957142Y-102330952D01*
X61861904Y-102330952D01*
X61823809Y-102350000D01*
X61804761Y-102369047D01*
X61785714Y-102407142D01*
X61785714Y-102445238D01*
X61804761Y-102502380D01*
X62033333Y-102730952D01*
X61785714Y-102730952D01*
X61442857Y-102330952D02*
X61519047Y-102330952D01*
X61557142Y-102350000D01*
X61576190Y-102369047D01*
X61614285Y-102426190D01*
X61633333Y-102502380D01*
X61633333Y-102654761D01*
X61614285Y-102692857D01*
X61595238Y-102711904D01*
X61557142Y-102730952D01*
X61480952Y-102730952D01*
X61442857Y-102711904D01*
X61423809Y-102692857D01*
X61404761Y-102654761D01*
X61404761Y-102559523D01*
X61423809Y-102521428D01*
X61442857Y-102502380D01*
X61480952Y-102483333D01*
X61557142Y-102483333D01*
X61595238Y-102502380D01*
X61614285Y-102521428D01*
X61633333Y-102559523D01*
M02*
