M48
;DRILL file {KiCad 5.0.2-bee76a0~70~ubuntu18.04.1} date Wed 30 Sep 2020 14:13:57 AEST
;FORMAT={-:-/ absolute / inch / decimal}
FMAT,2
INCH,TZ
T1C0.0177
T2C0.0181
T3C0.0236
T4C0.0335
T5C0.0433
T6C0.1260
%
G90
G05
T1
X1.3169Y-2.6437
X1.3169Y-4.6122
X1.3583Y-1.6831
X1.3583Y-3.6516
X1.3799Y-1.2579
X1.3799Y-2.2421
X1.3799Y-3.2264
X1.3799Y-4.2106
X1.4547Y-1.1929
X1.4547Y-2.1811
X1.4547Y-3.1634
X1.4547Y-4.1476
X1.4882Y-1.5413
X1.4882Y-2.5256
X1.4882Y-3.5098
X1.4882Y-4.4941
X1.5512Y-1.5433
X1.5512Y-2.5276
X1.5512Y-3.5118
X1.5512Y-4.4961
X1.5728Y-0.9783
X1.5728Y-1.9626
X1.5728Y-2.9469
X1.5728Y-3.9311
X1.6063Y-1.2559
X1.6063Y-2.2402
X1.6063Y-3.2244
X1.6063Y-4.2087
X1.687Y-1.3937
X1.687Y-2.378
X1.687Y-3.3622
X1.687Y-4.3465
X1.7067Y-0.9803
X1.7067Y-1.9646
X1.7067Y-2.9488
X1.7067Y-3.9331
X1.7362Y-1.2579
X1.7362Y-2.2421
X1.7362Y-3.2264
X1.7362Y-4.2106
X1.7657Y-1.
X1.7657Y-1.9843
X1.7657Y-2.9685
X1.7657Y-3.9528
X1.7795Y-1.4606
X1.7795Y-2.4449
X1.7795Y-3.4291
X1.7795Y-4.4134
X1.8484Y-1.439
X1.8484Y-2.4232
X1.8484Y-3.4075
X1.8484Y-4.3917
X1.8504Y-0.9567
X1.8504Y-1.9409
X1.8504Y-2.9252
X1.8504Y-3.9094
X1.9724Y-1.4409
X1.9724Y-2.4252
X1.9724Y-3.4094
X1.9724Y-4.3937
X1.9843Y-1.0866
X1.9843Y-2.0709
X1.9843Y-3.0551
X1.9843Y-4.0394
X2.0128Y-0.8917
X2.0128Y-1.876
X2.0128Y-2.8602
X2.0128Y-3.8445
X2.0266Y-1.2825
X2.0266Y-2.2667
X2.0266Y-3.251
X2.0266Y-4.2352
X2.0354Y-1.2264
X2.0354Y-2.2106
X2.0354Y-3.1949
X2.0354Y-4.1791
X2.0374Y-1.3248
X2.0374Y-2.3091
X2.0374Y-3.2953
X2.0374Y-4.2795
X2.0472Y-1.1457
X2.0472Y-2.1299
X2.0472Y-3.1142
X2.0472Y-4.0984
X2.0669Y-1.5
X2.0669Y-2.4843
X2.0669Y-3.4685
X2.0669Y-4.4528
X2.0709Y-1.0433
X2.0709Y-2.0276
X2.0709Y-3.0118
X2.0709Y-3.9961
X2.0846Y-0.9862
X2.0846Y-1.9705
X2.0846Y-2.9547
X2.0846Y-3.939
X2.124Y-1.4941
X2.124Y-2.4783
X2.124Y-3.4626
X2.124Y-4.4469
X2.1476Y-1.0945
X2.1476Y-2.0787
X2.1476Y-3.063
X2.1476Y-4.0472
X2.1594Y-1.2008
X2.1594Y-2.185
X2.1594Y-3.1693
X2.1594Y-4.1535
X2.1614Y-1.2598
X2.1614Y-2.2441
X2.1614Y-3.2283
X2.1614Y-4.2126
X2.1673Y-1.3248
X2.1673Y-2.3091
X2.1673Y-3.2933
X2.1673Y-4.2776
X2.1801Y-0.9537
X2.1801Y-1.938
X2.1801Y-2.9222
X2.1801Y-3.9065
X2.2087Y-1.0945
X2.2087Y-2.0807
X2.2087Y-3.065
X2.2087Y-4.0472
X2.2165Y-1.4429
X2.2165Y-2.4272
X2.2165Y-3.4114
X2.2165Y-4.3957
X2.252Y-1.4429
X2.252Y-2.4272
X2.252Y-3.4114
X2.252Y-4.3957
X2.2549Y-1.5581
X2.2549Y-2.5423
X2.2549Y-3.5266
X2.2549Y-4.5108
X2.2795Y-1.3169
X2.2795Y-2.3012
X2.2795Y-3.2854
X2.2795Y-4.2697
X2.2864Y-1.2047
X2.2864Y-2.189
X2.2864Y-3.1732
X2.2864Y-4.1575
X2.3021Y-1.1061
X2.3021Y-2.0903
X2.3021Y-3.0746
X2.3021Y-4.0588
X2.3169Y-1.5748
X2.3169Y-2.5591
X2.3169Y-3.5433
X2.3169Y-4.5276
X2.3228Y-0.9724
X2.3228Y-1.9567
X2.3228Y-2.9409
X2.3228Y-3.9252
X2.3701Y-1.1555
X2.3701Y-2.1398
X2.3701Y-3.124
X2.3701Y-4.1083
X2.376Y-1.1142
X2.376Y-2.0984
X2.376Y-3.0827
X2.376Y-4.0669
X2.3819Y-1.2876
X2.3819Y-2.2718
X2.3819Y-3.2561
X2.3819Y-4.2403
X2.3839Y-0.998
X2.3839Y-1.9823
X2.3839Y-2.9665
X2.3839Y-3.9508
X2.4094Y-1.3327
X2.4094Y-2.3169
X2.4094Y-3.3012
X2.4094Y-4.2854
X2.4154Y-1.3996
X2.4154Y-2.3839
X2.4154Y-3.3681
X2.4154Y-4.3524
X2.439Y-1.4311
X2.439Y-2.4154
X2.439Y-3.3996
X2.439Y-4.3839
X2.4744Y-1.5315
X2.4744Y-2.5157
X2.4744Y-3.5
X2.4744Y-4.4843
X2.4921Y-1.0709
X2.4921Y-2.0551
X2.4921Y-3.0394
X2.4921Y-4.0236
X2.5031Y-1.198
X2.5031Y-2.1822
X2.5031Y-3.1665
X2.5031Y-4.1507
X2.5157Y-1.3878
X2.5157Y-2.372
X2.5157Y-3.3563
X2.5157Y-4.3406
X2.5551Y-1.0354
X2.5551Y-2.0197
X2.5551Y-3.0039
X2.5551Y-3.9882
X2.5803Y-1.3236
X2.5803Y-2.3079
X2.5803Y-3.2921
X2.5803Y-4.2764
X2.66Y-1.1373
X2.66Y-2.1215
X2.66Y-3.1058
X2.66Y-4.09
X2.6791Y-0.9705
X2.6791Y-1.3012
X2.6791Y-1.374
X2.6791Y-1.9547
X2.6791Y-2.2854
X2.6791Y-2.3583
X2.6791Y-2.939
X2.6791Y-3.2697
X2.6791Y-3.3425
X2.6791Y-3.9232
X2.6791Y-4.2539
X2.6791Y-4.3268
X2.6831Y-1.5
X2.6831Y-2.4843
X2.6831Y-3.4685
X2.6831Y-4.4528
X2.69Y-1.1073
X2.69Y-2.0916
X2.69Y-3.0758
X2.69Y-4.0601
X2.7461Y-1.2579
X2.7461Y-2.2421
X2.7461Y-3.2264
X2.7461Y-4.2106
X2.7677Y-1.2126
X2.7677Y-2.1969
X2.7677Y-3.1811
X2.7677Y-4.1654
X2.8878Y-0.9724
X2.8878Y-1.5079
X2.8878Y-1.9567
X2.8878Y-2.4921
X2.8878Y-2.9409
X2.8878Y-3.4764
X2.8878Y-3.9252
X2.8878Y-4.4606
X2.9252Y-1.2776
X2.9252Y-2.2618
X2.9252Y-3.2461
X2.9252Y-4.2303
X2.9272Y-1.1988
X2.9272Y-2.1831
X2.9272Y-3.1673
X2.9272Y-4.1516
X3.0531Y-1.4469
X3.0531Y-2.4311
X3.0531Y-3.4154
X3.0531Y-4.3996
X3.0551Y-1.0335
X3.0551Y-2.0177
X3.0551Y-3.002
X3.0551Y-3.9862
X3.0591Y-1.1358
X3.0591Y-1.2087
X3.0591Y-1.3465
X3.0591Y-2.1201
X3.0591Y-2.1929
X3.0591Y-2.3307
X3.0591Y-3.1043
X3.0591Y-3.1772
X3.0591Y-3.315
X3.0591Y-4.0886
X3.0591Y-4.1614
X3.0591Y-4.2992
X3.0605Y-1.2685
X3.0605Y-2.2527
X3.0605Y-3.237
X3.0605Y-4.2212
X3.1417Y-1.4843
X3.1417Y-2.4685
X3.1417Y-3.4528
X3.1417Y-4.437
X3.1437Y-1.
X3.1437Y-1.4409
X3.1437Y-1.9843
X3.1437Y-2.4252
X3.1437Y-2.9685
X3.1437Y-3.4094
X3.1437Y-3.9528
X3.1437Y-4.3937
X3.1457Y-0.9528
X3.1457Y-1.937
X3.1457Y-2.9213
X3.1457Y-3.9055
X3.2283Y-1.3937
X3.2283Y-2.378
X3.2283Y-3.3622
X3.2283Y-4.3465
X3.2303Y-2.1319
X3.2303Y-3.1161
X3.2323Y-1.1437
X3.2323Y-4.0984
X3.2343Y-4.244
X3.2353Y-1.2913
X3.2353Y-2.2755
X3.2353Y-3.2598
X3.2382Y-1.3454
X3.2382Y-2.3297
X3.2382Y-3.3139
X3.2382Y-4.2982
X3.2579Y-1.2579
X3.2579Y-2.2421
X3.2579Y-3.2264
X3.2579Y-4.2106
X3.2583Y-1.218
X3.2583Y-2.2023
X3.2583Y-3.1865
X3.2583Y-4.1708
X3.2618Y-1.1732
X3.2618Y-2.1575
X3.2618Y-3.1417
X3.2618Y-4.126
X3.2953Y-1.1063
X3.2953Y-2.0906
X3.2953Y-3.0748
X3.2953Y-4.0591
X3.3228Y-0.9449
X3.3228Y-1.9291
X3.3228Y-2.9134
X3.3228Y-3.8976
X3.3346Y-1.2795
X3.3346Y-2.2638
X3.3346Y-3.248
X3.3346Y-4.2323
X3.3529Y-1.2351
X3.3529Y-2.2193
X3.3529Y-3.2036
X3.3529Y-4.1878
X3.4134Y-2.2047
X3.4803Y-1.9252
X3.4803Y-3.1535
X3.4803Y-3.1969
X3.4803Y-3.2441
X3.4921Y-2.9016
X3.4921Y-3.8898
X3.5249Y-1.8887
X3.5456Y-1.8201
X3.5502Y-3.8297
X3.5512Y-3.8701
X3.5551Y-1.8583
X3.5563Y-3.7881
X3.5709Y-4.1063
X3.5709Y-4.1457
X3.5709Y-4.185
X3.5709Y-4.2244
X3.6614Y-3.1969
X3.6649Y-3.2457
X3.6772Y-4.1457
X3.6772Y-4.185
X3.6801Y-4.1053
X3.6815Y-4.2242
X3.6893Y-3.169
X3.6929Y-1.8071
X3.7323Y-2.2717
X3.7373Y-1.8052
X3.7717Y-3.6457
X3.7832Y-1.8404
X3.7835Y-3.0945
X3.811Y-2.1732
X3.8228Y-3.0945
X3.8307Y-1.8504
X3.8386Y-2.8071
X3.8386Y-2.8465
X3.8504Y-2.6024
X3.8746Y-2.873
X3.878Y-2.7402
X3.8845Y-3.6679
X3.8917Y-1.3288
X3.8937Y-3.9724
X3.8976Y-3.0945
X3.9213Y-2.6142
X3.9331Y-3.4803
X3.937Y-3.0945
X3.9429Y-3.7549
X3.9449Y-3.9764
X3.9606Y-3.1378
X3.9724Y-3.2677
X3.9724Y-1.7756
X3.9843Y-3.0945
X3.9941Y-3.9902
X4.0039Y-1.7362
X4.0118Y-3.2677
X4.0236Y-3.4961
X4.0394Y-1.7087
X4.0435Y-3.7598
X4.0472Y-3.3268
X4.0709Y-2.7244
X4.0827Y-3.6535
X4.0866Y-3.7598
X4.0906Y-3.0787
X4.1161Y-3.9902
X4.122Y-3.6457
X4.1235Y-3.786
X4.126Y-1.0354
X4.1339Y-3.5039
X4.1457Y-1.1457
X4.1575Y-1.7283
X4.185Y-3.0787
X4.2244Y-2.8937
X4.2441Y-2.748
X4.2441Y-2.815
X4.248Y-1.7244
X4.2559Y-2.6732
X4.2874Y-0.9882
X4.3031Y-3.6122
X4.3228Y-1.0354
X4.3425Y-3.1339
X4.3725Y-3.6102
X4.3937Y-1.4291
X4.4173Y-3.4606
X4.4331Y-3.311
X4.437Y-1.5827
X4.437Y-1.7205
X4.4449Y-2.8465
X4.4562Y-2.8021
X4.4685Y-3.0906
X4.4764Y-3.311
X4.496Y-2.8021
X4.4961Y-3.5039
X4.5Y-1.4291
X4.5236Y-3.622
X4.5365Y-3.3543
X4.5394Y-3.3976
X4.5591Y-3.8996
X4.561Y-3.7697
X4.563Y-2.7913
X4.5984Y-4.0768
X4.5984Y-4.374
X4.6102Y-2.6417
X4.626Y-1.5315
X4.6299Y-1.7244
X4.6772Y-2.7047
X4.7165Y-1.7244
X4.7244Y-2.0315
X4.7638Y-2.1299
T2
X1.2693Y-2.0913
X1.2693Y-2.4362
X1.2693Y-1.1071
X1.2693Y-1.452
X1.2693Y-4.0598
X1.2693Y-4.4047
X1.2693Y-3.0756
X1.2693Y-3.4205
T4
X4.7357Y-2.6575
X4.7357Y-2.8543
T5
X4.2913Y-4.0886
X4.2913Y-4.3445
X4.4685Y-4.0886
X4.4685Y-4.3445
T6
X4.7638Y-4.5669
X1.1417Y-1.7717
X1.1417Y-3.7402
X4.7638Y-0.9449
T3
X4.8282Y-2.6181G85X4.8558Y-2.6181
G05
X4.8558Y-2.8937G85X4.8282Y-2.8937
G05
T0
M30
